<svg version="1.2" xmlns="http://www.w3.org/2000/svg" viewBox="0 0 360 266" width="360" height="266">
	<title>Cal</title>
	<style>
		.s0 { fill: #ffffff } 
		.s1 { fill: #000000 } 
	</style>
	<path class="s0" d="m11.4 25.1h-8.6v3.4c0 2.3 1.4 3.6 3.6 3.6 2.2 0 3.5-1.3 3.5-3.6v-1.1h1.1v1.1c0 2.9-1.7 4.6-4.6 4.6-2.9 0-4.7-1.7-4.7-4.6v-7.6h1.1v3.2h8.6zm4 0.4v7.5h-1.1v-7.5c0-3 1.8-4.7 4.7-4.7 2.9 0 4.6 1.7 4.6 4.7v2h-1.1v-2c0-2.4-1.3-3.7-3.5-3.7-2.2 0-3.6 1.4-3.6 3.7zm18.8-1.7h1.1v9.2h-1.1v-4.3c-0.7 1.1-1.8 1.8-3.3 1.8-3 0-4.5-1.8-4.5-4.7v-4.9h1.1v4.9c0 2.3 1.1 3.7 3.4 3.7 2 0 3.1-1.4 3.3-3.5z"/>
	<path class="s0" d="m63.6 25.1h-8.6v3.4c0 2.3 1.3 3.6 3.5 3.6 2.2 0 3.6-1.3 3.6-3.6v-1.1h1.1v1.1c0 2.9-1.8 4.6-4.7 4.6-2.9 0-4.6-1.7-4.6-4.6v-7.6h1.1v3.2h8.6zm4 0.4v7.5h-1.1v-7.5c0-3 1.7-4.7 4.6-4.7 2.9 0 4.7 1.7 4.7 4.7v2h-1.1v-2c0-2.4-1.4-3.7-3.6-3.7-2.2 0-3.5 1.4-3.5 3.7zm21.4 4.7v1h-8.8v1.8h-1.1v-1.8h-1.1v-1h1.1v-5.4c0.1-2.3 1.8-4 4.7-4 2.8 0 4.7 1.6 4.7 3.8 0 2.2-1.8 3.9-4.5 3.9-1.6 0-2.9-0.6-3.8-1.6v3.3zm-5.2-8.4c-2.2 0-3.6 1.3-3.6 2.8 0 1.6 1.5 2.9 3.6 2.9 2.2 0 3.5-1.3 3.5-2.9 0-1.5-1.3-2.8-3.5-2.8z"/>
	<path class="s0" d="m116.1 25.6c0 2.3-1.2 4.5-4.5 5.6l2.3 1.3v1.1l-7.8-4.5v-1.1l4.5 2.6c3.3-1.1 4.4-2.9 4.4-5 0-2.2-1.7-3.8-3.9-3.8-2.3 0-3.9 1.1-3.9 3.3v0.2h-1.1v-0.2c0-2.7 2.1-4.3 5-4.3 2.8 0 5 2 5 4.8zm3.5-0.1v7.5h-1.1v-7.5c0-2.9 1.7-4.7 4.6-4.7 2.9 0 4.7 1.8 4.7 4.7v2h-1.1v-2c0-2.4-1.4-3.7-3.6-3.7-2.2 0-3.5 1.4-3.5 3.7zm21.4 4.7v1h-8.8v1.8h-1.1v-1.8h-1.1v-1h1.1v-5.4c0.1-2.3 1.8-4 4.7-4 2.8 0 4.7 1.6 4.7 3.8 0 2.3-1.8 3.9-4.5 3.9-1.6 0-2.9-0.6-3.8-1.6v3.3zm-5.2-8.4c-2.2 0-3.6 1.3-3.6 2.8 0 1.6 1.5 2.9 3.6 2.9 2.2 0 3.5-1.3 3.5-2.9 0-1.5-1.3-2.8-3.5-2.8z"/>
	<path class="s0" d="m164.8 26.4c2.1 0.6 2.6 2.1 2.5 3.3v3.3h-1.1v-3.3-0.1c0-1.8-1.6-2.6-3.4-2.6h-3.6v-1h3.5c0.9 0 3.2-0.3 3.2-2 0-1.1-0.9-2.1-3.3-2.1h-0.1-3.7v-1h3.6 0.2c3.1 0 4.4 1.1 4.4 3.1 0 1-0.7 2.1-2.2 2.4zm14.2-0.5h1.1v2.6c0 2.9-1.7 4.6-4.6 4.6-2.9 0-4.6-1.7-4.6-4.6v-6.6h-2.9v-1h4v7.6c0 2.3 1.3 3.6 3.5 3.6 2.2 0 3.5-1.3 3.5-3.6zm15 2.8v1h-2.4v3.3h-1.1v-3.3h-3.5c-3.2 0-4.9-1.9-4.9-4.5 0-2.7 2-4.4 4.9-4.4 2.8 0 4.6 1.6 4.6 3.9v4zm-3.5 0v-4c0-1.6-1.1-2.9-3.4-2.9-2.4-0.1-3.9 1.4-3.9 3.4 0.1 2.2 1.4 3.5 3.9 3.5z"/>
	<path class="s0" d="m212.2 25.5v7.5h-1.1v-7.5c0-2.9 1.7-4.7 4.6-4.7 2.9 0 4.6 1.8 4.6 4.7v7.5h-1.1v-7.5c0-2.4-1.3-3.7-3.5-3.7-2.2 0-3.5 1.4-3.5 3.7zm14.6-0.9v1h-3.3v7.4h-1v-12.1h1v3.7zm2.5 0.9v7.5h-1.1v-7.5c0-2.9 1.7-4.7 4.6-4.7 2.9 0 4.7 1.8 4.7 4.7v2h-1.1v-2c0-2.4-1.3-3.7-3.6-3.7-2.2 0-3.5 1.4-3.5 3.7zm21 3.6v1h-8.6v2.9h-1.1v-7.7c0-2.9 1.7-4.6 4.6-4.6 2.9 0 4.7 1.7 4.7 4.6v1h-1.1v-1c0-2.3-1.4-3.6-3.6-3.6-2.2 0-3.5 1.3-3.5 3.6v3.8z"/>
	<path class="s0" d="m277 28.6h1.1v0.1c0 3-2 4.3-4.9 4.3-2.8 0-5.1-1.8-5.1-4.7 0-2.7 1.7-4.4 4.3-5.1l-2.9-1.5v-1.1l8.6 4.5v1.1l-4.7-2.4c-2.9 0.6-4.2 2.3-4.2 4.5 0 2.3 1.9 3.8 4 3.8 2.3 0 3.8-1 3.8-3.4zm13.2 0.6v1h-8.6v2.9h-1.1v-7.7c0-2.9 1.8-4.6 4.7-4.6 2.9 0 4.6 1.7 4.6 4.6v1h-1.1v-1c0-2.3-1.3-3.6-3.5-3.6-2.2 0-3.6 1.3-3.6 3.6v3.8zm16.5-2.1h-1.9v2.7c0.1 2-1.6 3.4-3.8 3.4-2.1 0-4.1-1.3-4.1-3.6 0-2 1.3-3.5 3.9-3.5h2.9v-0.5c0-2.4-1.9-3.7-4.7-3.7-2.9 0-4.7 1.3-4.8 3.7v7.5h-1.1v-7.5c0-3 2.1-4.7 5.9-4.7 3.7 0 5.8 1.9 5.8 4.7v0.5h1.9zm-3 2.6v-2.6h-2.9c-1.8 0-2.8 1-2.8 2.5 0 1.5 1.2 2.6 3 2.6 1.7 0 2.7-1.1 2.7-2.5z"/>
	<path class="s0" d="m331.4 23.8h1.1v9.2h-1.1v-4.3c-0.7 1.1-1.8 1.8-3.3 1.8-3 0-4.5-1.8-4.5-4.7v-4.9h1.1v4.9c0 2.3 1.1 3.7 3.4 3.7 2 0 3.1-1.4 3.3-3.5zm8.9-0.7c2.9 0 4.6 1.8 4.6 4.7v1.5h-1.1v-1.5c0-2.3-1.3-3.7-3.5-3.7-2.2 0-3.5 1.6-3.5 3.9v5h-1.1v-12.2h1.1v4.2c0.7-1.1 1.9-1.9 3.5-1.9zm8.7 2.3v7.6h-1.1v-7.6c0-2.9 1.7-4.6 4.6-4.6 2.9 0 4.7 1.7 4.7 4.6v2h-1.2v-2c0-2.3-1.3-3.6-3.5-3.6-2.2 0-3.5 1.3-3.5 3.6z"/>
	<path class="s0" d="m225.3 58.4h4.3v12.6h-1.2v-11.5h-3.1z"/>
	<path class="s1" d="m230 103.3c2.5 0 4 1.2 4 3.2 0 1.3-0.8 2.3-2.1 2.8 1.7 0.4 2.7 1.6 2.7 3.2 0 2.2-1.7 3.6-4.6 3.6-2.8 0-4.6-1.4-4.6-3.6 0-1.6 1.1-2.8 2.8-3.2-1.4-0.6-2.2-1.5-2.2-2.9 0-1.9 1.6-3.1 4-3.1zm0 1c-1.8 0-2.9 0.8-2.9 2.3 0 1.4 1.1 2.2 2.9 2.2 1.8 0 2.9-0.8 2.9-2.2 0-1.5-1.1-2.3-2.9-2.3zm0 5.5c-2.1 0-3.4 1-3.4 2.6 0 1.7 1.3 2.7 3.4 2.7 2.2 0 3.4-1 3.4-2.7 0-1.6-1.2-2.6-3.4-2.6z"/>
	<path class="s0" d="m226.3 148.4h4.3v12.6h-1.2v-11.5h-3.1zm12.2 4.9c2.8 0 4.5 1.5 4.5 3.6 0 2.5-1.8 4.2-4.6 4.2-1.4 0-3.1-0.6-4.4-1.4l0.5-0.9c1.1 0.7 2.6 1.2 3.8 1.2 2.1 0 3.4-1.2 3.4-3 0-1.6-1.2-2.6-3.4-2.6-0.8 0-2.4 0.1-3.4 0.4v-6.4h7.6v1.1h-6.4v4c0.7-0.2 1.7-0.2 2.4-0.2z"/>
	<path class="s0" d="m229.5 204.9h7.4v1.1h-9v-1l5-5.2c1.1-1.2 1.9-2.4 1.9-3.2 0-1.4-1.1-2.2-2.8-2.2-1.2 0-2.6 0.6-3.6 1.6l-0.6-0.9c1.3-1.1 2.8-1.8 4.3-1.8 2.4 0 4 1.2 4 3.1 0 1.2-1 2.6-2.4 4.1zm10.3 0h7.4v1.1h-9v-1l5-5.2c1.2-1.2 1.9-2.4 1.9-3.3 0-1.3-1.1-2.1-2.8-2.1-1.2 0-2.6 0.6-3.6 1.6l-0.5-1c1.2-1 2.7-1.7 4.2-1.7 2.4 0 4 1.2 4 3.1 0 1.1-1 2.6-2.3 4.1z"/>
	<path class="s0" d="m229.4 249.9h7.4v1.1h-9v-1l5-5.2c1.1-1.2 1.9-2.4 1.9-3.2 0-1.4-1.1-2.2-2.8-2.2-1.2 0-2.6 0.6-3.6 1.6l-0.6-0.9c1.3-1.1 2.8-1.8 4.3-1.8 2.4 0 4 1.2 4 3.1 0 1.2-1 2.6-2.3 4.1zm10.2-0.7c0.8 0.5 1.9 0.8 2.9 0.8 2.8 0 4.3-2.4 4-6.2-0.5 1.7-1.9 2.6-3.9 2.6-2.5 0-4-1.5-4-3.9 0-2.6 1.7-4.2 4.3-4.2 3 0 4.9 2.2 4.9 6.1 0 4-2 6.7-5.2 6.7-1.1 0-2.5-0.4-3.5-0.9zm3.3-9.8c-1.8 0-3.1 1.1-3.1 3 0 1.8 1.2 3 3 3 2.1 0 3.4-1.5 3.4-3.1 0-1.2-1-2.9-3.3-2.9z"/>
	<path class="s0" d="m284.6 69.9h7.4v1.1h-8.9v-1l4.9-5.2c1.2-1.2 1.9-2.4 1.9-3.2 0-1.4-1-2.2-2.8-2.2-1.2 0-2.5 0.6-3.6 1.6l-0.5-0.9c1.2-1.1 2.8-1.8 4.3-1.8 2.4 0 3.9 1.2 3.9 3.1 0 1.2-0.9 2.6-2.3 4.1z"/>
	<path class="s0" d="m283.5 114.2c0.8 0.5 1.9 0.8 2.9 0.8 2.8 0 4.3-2.4 4-6.2-0.5 1.7-1.9 2.6-3.9 2.6-2.4 0-4-1.5-4-3.9 0-2.6 1.7-4.2 4.3-4.2 3 0 4.9 2.2 4.9 6.1 0 4-2 6.7-5.2 6.7-1.1 0-2.5-0.4-3.5-0.9zm3.4-9.8c-1.9 0-3.2 1.1-3.2 3 0 1.9 1.2 3 3 3 2.2 0 3.4-1.5 3.4-3.1 0-1.2-1-2.9-3.2-2.9z"/>
	<path class="s0" d="m280.6 148.4h4.3v12.6h-1.3v-11.5h-3zm15.9 1.8c-0.9-0.5-2-0.8-3-0.8-2.8 0-4.2 2.4-4 6.2 0.5-1.7 1.9-2.6 3.9-2.6 2.5 0 4.1 1.5 4.1 3.9 0 2.6-1.7 4.2-4.3 4.2-3.1 0-4.9-2.2-4.9-6.1 0-4 1.9-6.6 5.1-6.6 1.2 0 2.6 0.3 3.6 0.8zm-3.3 3.9c-2.1 0-3.4 1.4-3.4 3 0 1.3 1 3 3.3 3 1.9 0 3.2-1.2 3.2-3.1 0-1.8-1.2-2.9-3.1-2.9z"/>
	<path class="s0" d="m282.4 204.9h7.4v1.1h-9v-1l5-5.2c1.2-1.2 1.9-2.4 1.9-3.2 0-1.4-1.1-2.2-2.8-2.2-1.2 0-2.6 0.6-3.6 1.6l-0.5-0.9c1.2-1.1 2.7-1.8 4.2-1.8 2.4 0 4 1.2 4 3.1 0 1.2-1 2.6-2.3 4.1zm13.1-6.1c2.6 0.1 4.3 1.3 4.3 3.3 0 2.4-1.8 4-4.8 4-1.6 0-3.2-0.5-4.3-1.3l0.6-0.9c1 0.7 2.3 1.1 3.6 1.1 2.4 0 3.7-1.1 3.7-2.8 0-1.7-1.4-2.6-3.7-2.6h-1.6v-0.8l4.3-4.3h-6.3v-1.1h7.9v0.8l-4.5 4.6z"/>
	<path class="s0" d="m285.5 243.8c2.6 0.1 4.3 1.3 4.3 3.3 0 2.4-1.8 4-4.8 4-1.6 0-3.2-0.5-4.3-1.3l0.6-0.9c1 0.7 2.3 1.1 3.6 1.1 2.3 0 3.7-1.1 3.7-2.8 0-1.7-1.4-2.6-3.7-2.6h-1.6v-0.8l4.2-4.3h-6.2v-1.1h7.9v0.8l-4.5 4.6zm12-5.5c3.3 0 5.1 2.3 5.1 6.4 0 4-1.8 6.3-5.1 6.3-3.3 0-5.2-2.3-5.2-6.3 0-4.1 1.9-6.4 5.2-6.4zm0 1q-3.9 0-3.9 5.4c0 3.5 1.3 5.3 3.9 5.3 2.5 0 3.9-1.8 3.9-5.3 0-3.6-1.4-5.4-3.9-5.4z"/>
	<path class="s0" d="m339.1 243.8c2.7 0.1 4.4 1.3 4.4 3.3 0 2.4-1.9 4-4.8 4-1.6 0-3.2-0.5-4.3-1.3l0.5-0.9c1 0.7 2.4 1.1 3.7 1.1 2.3 0 3.7-1.1 3.7-2.8 0-1.7-1.4-2.6-3.7-2.6h-1.7v-0.8l4.3-4.3h-6.2v-1.1h7.8v0.8l-4.5 4.6zm5.5-5.4h4.3v12.6h-1.3v-11.5h-3z"/>
	<path class="s0" d="m339.4 63.8c2.6 0.1 4.3 1.3 4.3 3.3 0 2.4-1.8 4-4.8 4-1.5 0-3.1-0.5-4.3-1.3l0.6-0.9c1 0.7 2.3 1.1 3.7 1.1 2.3 0 3.6-1.1 3.6-2.8 0-1.7-1.4-2.6-3.7-2.6h-1.6v-0.8l4.3-4.3h-6.3v-1.1h7.9v0.8l-4.5 4.6z"/>
	<path class="s0" d="m330.4 103.4h4.3v12.6h-1.2v-11.5h-3.1zm13.1 0c3.3 0 5.2 2.2 5.2 6.3 0 4.1-1.9 6.4-5.2 6.4-3.3 0-5.2-2.3-5.2-6.4 0-4.1 1.9-6.3 5.2-6.3zm0 1c-2.5 0-3.9 1.8-3.9 5.3 0 3.5 1.4 5.4 3.9 5.4 2.5 0 3.9-1.9 3.9-5.4 0-3.5-1.4-5.3-3.9-5.3z"/>
	<path class="s0" d="m331.3 148.4h4.3v12.6h-1.3v-11.5h-3zm6.8 0h9.2v1l-5.7 11.6h-1.3l5.7-11.5h-6.8v1.9h-1.1z"/>
	<path class="s0" d="m332.4 204.9h7.3v1.1h-8.9v-1l5-5.2c1.1-1.2 1.9-2.4 1.9-3.2 0-1.4-1.1-2.2-2.8-2.2-1.2 0-2.6 0.6-3.6 1.6l-0.6-0.9c1.2-1.1 2.8-1.8 4.3-1.8 2.4 0 3.9 1.2 3.9 3.1 0 1.2-0.9 2.6-2.3 4.1zm18-3.4v1.1h-2v3.4h-1.2v-3.4h-6.4v-1l4.8-8.2h1.2l-4.6 8.1h5v-3.6h1.2v3.6z"/>
	<path class="s0" d="m22.2 111.5v1.1h-2v3.4h-1.2v-3.4h-6.3v-1l4.7-8.2h1.3l-4.7 8.1h5v-3.6h1.2v3.6z"/>
	<path class="s0" d="m11.1 148.4h4.3v12.6h-1.3v-11.5h-3zm6.5 0h4.3v12.6h-1.2v-11.5h-3.1z"/>
	<path class="s0" d="m10.1 193.4h4.3v12.6h-1.3v-11.5h-3zm12.2 0c2.5 0 4 1.1 4 3.1 0 1.3-0.8 2.3-2.1 2.8 1.7 0.5 2.7 1.6 2.7 3.2 0 2.2-1.8 3.6-4.6 3.6-2.9 0-4.6-1.4-4.6-3.6 0-1.6 1-2.7 2.7-3.2-1.3-0.5-2.1-1.5-2.1-2.8 0-2 1.5-3.1 4-3.1zm0 0.9c-1.8 0-2.9 0.8-2.9 2.3 0 1.4 1.1 2.3 2.9 2.3 1.8 0 2.9-0.9 2.9-2.3 0-1.5-1.1-2.3-2.9-2.3zm0 5.5c-2.2 0-3.4 1-3.4 2.6 0 1.7 1.2 2.7 3.4 2.7 2.1 0 3.4-1 3.4-2.7 0-1.6-1.3-2.6-3.4-2.6z"/>
	<path class="s0" d="m11.6 249.9h7.4v1.1h-8.9v-1l4.9-5.2c1.2-1.2 1.9-2.4 1.9-3.2 0-1.4-1-2.2-2.8-2.2-1.2 0-2.5 0.6-3.6 1.6l-0.5-0.9c1.2-1.1 2.7-1.8 4.3-1.8 2.3 0 3.9 1.2 3.9 3.1 0 1.2-0.9 2.6-2.3 4.1zm13.7-6.7c2.8 0 4.6 1.6 4.6 3.7 0 2.5-1.9 4.2-4.7 4.2-1.4 0-3.1-0.6-4.4-1.4l0.5-1c1.2 0.8 2.6 1.3 3.8 1.3 2.1 0 3.5-1.2 3.5-3 0-1.6-1.3-2.7-3.5-2.7-0.8 0-2.4 0.2-3.4 0.5v-6.4h7.7v1.1h-6.5v3.9c0.7-0.1 1.7-0.2 2.4-0.2z"/>
	<path class="s0" d="m68.2 108.2c2.8 0 4.6 1.6 4.6 3.7 0 2.5-1.8 4.2-4.6 4.2-1.5 0-3.2-0.6-4.5-1.4l0.6-1c1.1 0.8 2.5 1.3 3.8 1.3 2 0 3.4-1.2 3.4-3 0-1.6-1.3-2.6-3.5-2.6-0.8 0-2.4 0.1-3.4 0.4v-6.4h7.7v1.1h-6.5v4c0.7-0.2 1.8-0.3 2.4-0.3z"/>
	<path class="s0" d="m62.2 148.4h4.3v12.6h-1.2v-11.5h-3.1zm8.7 11.5h7.4v1.1h-9v-1l5-5.2c1.1-1.2 1.9-2.4 1.9-3.2 0-1.3-1.1-2.1-2.8-2.1-1.2 0-2.6 0.5-3.6 1.5l-0.6-0.9c1.2-1.1 2.8-1.7 4.3-1.7 2.4 0 4 1.1 4 3 0 1.2-1 2.6-2.4 4.1z"/>
	<path class="s0" d="m63.1 193.4h4.3v12.6h-1.2v-11.5h-3.1zm8.7 10.9c0.8 0.4 1.9 0.7 2.9 0.7 2.8 0 4.2-2.4 4-6.2-0.5 1.7-1.9 2.6-3.9 2.6-2.5 0-4-1.5-4-3.9 0-2.6 1.7-4.1 4.2-4.1 3.1 0 4.9 2.1 4.9 6 0 4-1.9 6.7-5.1 6.7-1.2 0-2.5-0.4-3.5-0.9zm3.3-9.8c-1.8 0-3.1 1.1-3.1 3.1 0 1.8 1.1 2.9 3 2.9 2.1 0 3.4-1.5 3.4-3.1 0-1.2-1-2.9-3.3-2.9z"/>
	<path class="s0" d="m64.4 249.9h7.3v1.1h-8.9v-1l5-5.2c1.1-1.2 1.9-2.4 1.9-3.2 0-1.4-1.1-2.2-2.8-2.2-1.2 0-2.6 0.6-3.6 1.6l-0.6-0.9c1.2-1.1 2.8-1.8 4.3-1.8 2.4 0 3.9 1.2 3.9 3.1 0 1.2-0.9 2.6-2.3 4.1zm17.5-9.7c-0.8-0.5-2-0.8-2.9-0.8-2.9 0-4.3 2.4-4.1 6.2 0.6-1.7 2-2.6 4-2.6 2.5 0 4 1.5 4 3.9 0 2.6-1.7 4.2-4.3 4.2-3.1 0-4.9-2.2-4.9-6.1 0-4 2-6.7 5.2-6.7 1.1 0 2.5 0.4 3.5 0.9zm-3.2 3.8c-2.2 0-3.4 1.5-3.4 3.1 0 1.2 0.9 2.9 3.2 2.9 1.9 0 3.2-1.1 3.2-3 0-1.9-1.2-3-3-3z"/>
	<path class="s0" d="m125.7 105.2c-0.8-0.5-1.9-0.8-2.9-0.8-2.9 0-4.3 2.4-4.1 6.2 0.6-1.7 2-2.6 4-2.6 2.5 0 4 1.5 4 3.9 0 2.6-1.7 4.2-4.3 4.2-3 0-4.9-2.2-4.9-6.1 0-4 2-6.7 5.2-6.7 1.1 0 2.5 0.4 3.6 0.9zm-3.3 3.8c-2.2 0-3.4 1.5-3.4 3.1 0 1.2 0.9 3 3.2 3 1.9 0 3.3-1.2 3.3-3.1 0-1.8-1.3-3-3.1-3z"/>
	<path class="s0" d="m117.1 148.4h4.3v12.6h-1.2v-11.5h-3.1zm11.6 5.4c2.6 0.1 4.3 1.3 4.3 3.4 0 2.3-1.8 3.9-4.8 3.9-1.6 0-3.2-0.5-4.3-1.2l0.6-1c0.9 0.7 2.3 1.1 3.6 1.1 2.3 0 3.7-1.1 3.7-2.8 0-1.7-1.4-2.5-3.7-2.5h-1.6v-0.8l4.2-4.4h-6.2v-1.1h7.9v0.8l-4.5 4.6z"/>
	<path class="s0" d="m117.7 204.9h7.4v1.1h-9v-1l5-5.2c1.1-1.2 1.9-2.4 1.9-3.2 0-1.4-1.1-2.2-2.8-2.2-1.2 0-2.6 0.6-3.6 1.6l-0.6-0.9c1.3-1.1 2.8-1.8 4.3-1.8 2.4 0 4 1.2 4 3.1 0 1.2-1 2.6-2.4 4.1zm14.7-11.6c3.4 0 5.2 2.3 5.2 6.4 0 4.1-1.8 6.4-5.2 6.4-3.3 0-5.1-2.3-5.1-6.4 0-4.1 1.8-6.4 5.1-6.4zm0 1c-2.5 0-3.9 1.9-3.9 5.4 0 3.5 1.4 5.4 3.9 5.4 2.6 0 3.9-1.9 3.9-5.4 0-3.5-1.3-5.4-3.9-5.4z"/>
	<path class="s0" d="m120.6 249.9h7.3v1.1h-8.9v-1l5-5.2c1.1-1.2 1.8-2.4 1.8-3.2 0-1.4-1-2.2-2.8-2.2-1.2 0-2.5 0.6-3.5 1.6l-0.6-0.9c1.2-1.1 2.8-1.8 4.3-1.8 2.4 0 3.9 1.2 3.9 3.1 0 1.2-0.9 2.6-2.3 4.1zm8.4-11.5h9.2v1l-5.7 11.6h-1.3l5.7-11.5h-6.7l-0.1 1.9h-1.1z"/>
	<path class="s0" d="m169.8 103.4h9.3v1l-5.8 11.6h-1.3l5.7-11.5h-6.7v1.9h-1.2z"/>
	<path class="s0" d="m173.6 148.4h4.3v12.6h-1.3v-11.5h-3zm16.4 8.1v1.1h-2v3.4h-1.2v-3.4h-6.4v-1l4.8-8.2h1.2l-4.6 8.1h5v-3.5h1.2v3.5z"/>
	<path class="s0" d="m177.4 204.9h7.3v1.1h-8.9v-1l5-5.2c1.1-1.2 1.8-2.4 1.8-3.2 0-1.4-1-2.2-2.7-2.2-1.2 0-2.6 0.6-3.6 1.6l-0.6-0.9c1.2-1.1 2.8-1.8 4.3-1.8 2.4 0 3.9 1.2 3.9 3.1 0 1.2-0.9 2.6-2.3 4.1zm8.1-11.5h4.3v12.6h-1.2v-11.5h-3.1z"/>
	<path class="s0" d="m176.4 249.9h7.3v1.1h-8.9v-1l5-5.2c1.1-1.2 1.8-2.4 1.8-3.2 0-1.4-1-2.2-2.7-2.2-1.3 0-2.6 0.6-3.6 1.6l-0.6-0.9c1.2-1.1 2.8-1.8 4.3-1.8 2.4 0 3.9 1.2 3.9 3.1 0 1.2-0.9 2.6-2.3 4.1zm13.8-11.6c2.5 0 4 1.2 4 3.2 0 1.3-0.8 2.3-2.1 2.7 1.7 0.5 2.7 1.7 2.7 3.3 0 2.2-1.8 3.6-4.6 3.6-2.8 0-4.6-1.4-4.6-3.6 0-1.6 1-2.8 2.8-3.3-1.4-0.5-2.2-1.4-2.2-2.8 0-1.9 1.5-3.1 4-3.1zm0 1c-1.8 0-2.9 0.8-2.9 2.2 0 1.5 1.1 2.3 2.9 2.3 1.8 0 2.9-0.8 2.9-2.3 0-1.4-1.1-2.2-2.9-2.2zm0 5.5c-2.1 0-3.4 1-3.4 2.6 0 1.7 1.3 2.7 3.4 2.7 2.1 0 3.4-1 3.4-2.7 0-1.6-1.3-2.6-3.4-2.6z"/>
</svg>