<?xml version="1.0" encoding="UTF-8"?> <svg xmlns="http://www.w3.org/2000/svg" width="144" height="65" viewBox="0 0 144 65" fill="none"><path d="M68.3013 54.008C67.3173 54.008 66.5973 53.816 66.1413 53.432C65.6853 53.048 65.4573 52.652 65.4573 52.244C65.4573 51.908 65.5773 51.632 65.8173 51.416C66.0573 51.176 66.4053 51.056 66.8613 51.056C67.5573 51.056 68.3133 51.128 69.1293 51.272C69.9693 51.392 70.7613 51.452 71.5053 51.452C71.6253 51.452 71.7453 51.452 71.8653 51.452C72.0093 51.452 72.1293 51.44 72.2253 51.416C72.4653 51.008 72.6333 50.564 72.7293 50.084C72.8493 49.604 72.9093 49.124 72.9093 48.644C72.9093 48.02 72.7773 47.432 72.5133 46.88C72.2493 46.304 71.9493 45.8 71.6133 45.368C71.3013 44.912 71.0253 44.564 70.7853 44.324C70.6653 44.564 70.4613 44.912 70.1733 45.368C69.9093 45.8 69.6453 46.22 69.3813 46.628C69.0453 47.156 68.6613 47.696 68.2293 48.248C67.8213 48.776 67.5213 49.148 67.3293 49.364C67.1133 49.58 66.9693 49.688 66.8973 49.688C66.8013 49.688 66.7533 49.64 66.7533 49.544C66.7533 49.496 66.7893 49.424 66.8613 49.328C66.9333 49.208 67.0173 49.088 67.1133 48.968C67.2333 48.824 67.4853 48.488 67.8693 47.96C68.2773 47.432 68.6493 46.904 68.9853 46.376C69.3693 45.8 69.6813 45.308 69.9213 44.9C70.1853 44.468 70.3653 44.168 70.4613 44C70.2453 43.736 70.0533 43.388 69.8853 42.956C69.7173 42.5 69.6333 42.044 69.6333 41.588C69.6333 40.772 69.8373 40.112 70.2453 39.608C70.6773 39.08 71.0853 38.816 71.4693 38.816C71.9733 38.816 72.2253 39.212 72.2253 40.004C72.2253 40.172 72.2133 40.352 72.1893 40.544C72.1653 40.736 72.1293 40.952 72.0813 41.192C71.9853 41.552 71.8293 41.972 71.6133 42.452C71.4213 42.932 71.2773 43.268 71.1813 43.46C71.4453 43.82 71.8173 44.252 72.2973 44.756C72.7773 45.236 73.2093 45.812 73.5933 46.484C73.9773 47.132 74.1693 47.876 74.1693 48.716C74.1693 49.124 74.1213 49.532 74.0253 49.94C73.9533 50.324 73.8213 50.708 73.6293 51.092C74.5413 50.732 75.3933 50.216 76.1853 49.544C77.0013 48.848 77.7573 47.948 78.4533 46.844C78.5253 46.748 78.5973 46.7 78.6693 46.7C78.7653 46.7 78.8253 46.736 78.8493 46.808C78.8973 46.88 78.8973 46.964 78.8493 47.06C77.9613 48.404 77.0853 49.436 76.2213 50.156C75.3813 50.852 74.3973 51.356 73.2693 51.668C72.1653 53.228 70.5093 54.008 68.3013 54.008ZM70.9293 43.136C70.9773 43.016 71.0733 42.764 71.2173 42.38C71.3613 41.996 71.4813 41.6 71.5773 41.192C71.6493 40.832 71.6853 40.544 71.6853 40.328C71.6853 39.872 71.5653 39.644 71.3253 39.644C71.1333 39.644 70.9173 39.812 70.6773 40.148C70.4613 40.46 70.3533 40.892 70.3533 41.444C70.3533 41.804 70.4133 42.128 70.5333 42.416C70.6533 42.704 70.7853 42.944 70.9293 43.136ZM68.4093 53.648C69.1773 53.624 69.8493 53.456 70.4253 53.144C71.0253 52.832 71.5173 52.412 71.9013 51.884C71.1813 51.908 70.4613 51.872 69.7413 51.776C69.0213 51.68 68.3133 51.632 67.6173 51.632C67.3053 51.632 67.0413 51.704 66.8253 51.848C66.5853 51.992 66.4653 52.16 66.4653 52.352C66.4653 52.712 66.6573 53.012 67.0413 53.252C67.4253 53.516 67.8813 53.648 68.4093 53.648ZM68.4284 64.736C67.5884 64.736 66.9284 64.544 66.4484 64.16C65.9684 63.776 65.6324 63.284 65.4404 62.684C65.2484 62.108 65.1524 61.544 65.1524 60.992C65.1524 60.512 65.2004 60.092 65.2964 59.732C65.3924 59.372 65.5004 59.108 65.6204 58.94C65.7164 58.844 65.8004 58.796 65.8724 58.796C65.9684 58.796 66.0284 58.832 66.0524 58.904C66.0764 59 66.0524 59.096 65.9804 59.192C65.7884 59.432 65.6924 59.924 65.6924 60.668C65.6924 61.172 65.7764 61.7 65.9444 62.252C66.1124 62.828 66.4124 63.308 66.8444 63.692C67.2764 64.1 67.8764 64.304 68.6444 64.304C69.3404 64.304 70.0364 63.968 70.7324 63.296C71.4044 62.648 72.0644 61.76 72.7124 60.632C73.3364 59.528 73.9124 58.292 74.4404 56.924C74.9924 55.532 75.4964 54.164 75.9524 52.82C76.4084 51.452 76.9124 50.072 77.4644 48.68C78.0404 47.264 78.7604 45.8 79.6244 44.288C80.0804 43.496 80.5724 42.716 81.1004 41.948C81.6524 41.156 82.2284 40.508 82.8284 40.004C83.4284 39.5 84.0644 39.248 84.7364 39.248C84.8564 39.248 85.0244 39.26 85.2404 39.284C85.4564 39.308 85.5764 39.392 85.6004 39.536V39.572C85.6004 39.668 85.4924 39.716 85.2764 39.716C85.1804 39.716 85.0724 39.716 84.9524 39.716C84.8564 39.692 84.7604 39.68 84.6644 39.68C84.2324 39.68 83.7884 39.92 83.3324 40.4C82.8764 40.856 82.4324 41.42 82.0004 42.092C81.5924 42.764 81.2084 43.412 80.8484 44.036C81.4004 43.58 82.0124 43.208 82.6844 42.92C83.3564 42.632 83.9924 42.488 84.5924 42.488C85.2404 42.488 85.7684 42.704 86.1764 43.136C86.6084 43.544 86.7644 44.252 86.6444 45.26C86.5484 46.052 86.3324 46.88 85.9964 47.744C85.6604 48.584 85.2164 49.388 84.6644 50.156C84.1364 50.924 83.5124 51.572 82.7924 52.1C82.0964 52.604 81.3284 52.904 80.4884 53C80.6564 53.024 80.8124 53.036 80.9564 53.036C81.1244 53.06 81.2924 53.072 81.4604 53.072C82.6604 53.072 83.7764 52.76 84.8084 52.136C85.8404 51.488 86.7764 50.696 87.6164 49.76C88.4564 48.8 89.2004 47.864 89.8484 46.952C89.9204 46.832 90.0044 46.772 90.1004 46.772C90.1724 46.772 90.2204 46.808 90.2444 46.88C90.2924 46.952 90.2924 47.036 90.2444 47.132C88.8764 49.124 87.5804 50.624 86.3564 51.632C85.1564 52.616 83.9204 53.228 82.6484 53.468C82.1924 53.54 81.7244 53.576 81.2444 53.576C80.8364 53.576 80.4524 53.552 80.0924 53.504C79.7564 53.456 79.4804 53.408 79.2644 53.36C78.6644 53.168 78.2324 52.892 77.9684 52.532C77.7044 52.172 77.5364 51.86 77.4644 51.596C77.4404 51.764 77.3324 52.22 77.1404 52.964C76.9484 53.684 76.6844 54.56 76.3484 55.592C76.0124 56.624 75.6164 57.704 75.1604 58.832C74.8004 59.744 74.3084 60.656 73.6844 61.568C73.0604 62.48 72.3164 63.236 71.4524 63.836C70.5884 64.436 69.5804 64.736 68.4284 64.736ZM79.6604 52.784C80.2844 52.784 80.8964 52.52 81.4964 51.992C82.1204 51.44 82.6964 50.756 83.2244 49.94C83.7764 49.124 84.2324 48.308 84.5924 47.492C84.9764 46.676 85.2164 45.98 85.3124 45.404C85.3844 45.044 85.4204 44.72 85.4204 44.432C85.4204 43.424 85.0604 42.92 84.3404 42.92C83.8124 42.92 83.1644 43.196 82.3964 43.748C81.6284 44.3 80.8844 45.044 80.1644 45.98C79.4444 46.892 78.8684 47.912 78.4364 49.04C78.2924 49.4 78.1844 49.736 78.1124 50.048C78.0644 50.36 78.0404 50.648 78.0404 50.912C78.0404 51.512 78.1964 51.98 78.5084 52.316C78.8204 52.628 79.2044 52.784 79.6604 52.784ZM92.2005 53.288C91.0965 53.288 90.3045 52.916 89.8245 52.172C89.3685 51.428 89.1405 50.588 89.1405 49.652C89.1405 49.292 89.1765 48.932 89.2485 48.572C89.3205 48.188 89.4045 47.84 89.5005 47.528C89.7645 46.76 90.1125 46.052 90.5445 45.404C91.0005 44.732 91.4925 44.168 92.0205 43.712C92.4765 43.28 92.9565 42.944 93.4605 42.704C93.9885 42.464 94.4685 42.344 94.9005 42.344C95.3085 42.344 95.6325 42.464 95.8725 42.704C96.1365 42.92 96.2685 43.292 96.2685 43.82C96.2685 44.228 96.1845 44.684 96.0165 45.188C95.7525 46.052 95.2005 46.808 94.3605 47.456C93.5445 48.08 92.6805 48.392 91.7685 48.392C91.6005 48.392 91.4325 48.38 91.2645 48.356C91.0965 48.308 90.9165 48.26 90.7245 48.212C90.6285 48.572 90.5445 48.944 90.4725 49.328C90.4245 49.688 90.4005 50.036 90.4005 50.372C90.4005 51.044 90.5445 51.62 90.8325 52.1C91.1205 52.58 91.6245 52.82 92.3445 52.82C92.8965 52.82 93.5205 52.616 94.2165 52.208C94.9125 51.8 95.6085 51.284 96.3045 50.66C97.0245 50.036 97.6725 49.4 98.2485 48.752C98.8245 48.08 99.2805 47.48 99.6165 46.952C99.6885 46.832 99.7605 46.772 99.8325 46.772C99.9525 46.772 100.013 46.844 100.013 46.988C100.013 47.06 99.9765 47.156 99.9045 47.276C99.3045 48.14 98.6205 48.992 97.8525 49.832C97.0845 50.672 96.2805 51.392 95.4405 51.992C94.8645 52.4 94.3005 52.724 93.7485 52.964C93.2205 53.18 92.7045 53.288 92.2005 53.288ZM91.5885 48.14C92.0445 48.14 92.5245 47.972 93.0285 47.636C93.5325 47.276 93.9885 46.868 94.3965 46.412C94.8045 45.932 95.0925 45.512 95.2605 45.152C95.6205 44.384 95.8005 43.796 95.8005 43.388C95.8005 42.884 95.5845 42.632 95.1525 42.632C94.8645 42.632 94.5045 42.788 94.0725 43.1C93.6405 43.388 93.2085 43.82 92.7765 44.396C92.3685 44.948 91.9965 45.548 91.6605 46.196C91.3245 46.844 91.0605 47.408 90.8685 47.888C91.0605 48.056 91.3005 48.14 91.5885 48.14ZM102.082 53.288C101.17 53.288 100.414 52.976 99.8139 52.352C99.2139 51.704 98.9139 50.828 98.9139 49.724C98.9139 48.836 99.1299 47.852 99.5619 46.772C99.8259 46.124 100.198 45.476 100.678 44.828C101.158 44.156 101.746 43.616 102.442 43.208C103.138 42.776 103.942 42.608 104.854 42.704C105.646 42.8 106.186 43.016 106.474 43.352C106.762 43.664 106.906 43.988 106.906 44.324C106.906 44.612 106.834 44.864 106.69 45.08C106.546 45.272 106.414 45.368 106.294 45.368C106.102 45.368 106.006 45.176 106.006 44.792C106.006 44.576 106.006 44.336 106.006 44.072C106.006 43.808 105.934 43.592 105.79 43.424C105.646 43.232 105.346 43.136 104.89 43.136C104.362 43.136 103.834 43.352 103.306 43.784C102.802 44.192 102.346 44.708 101.938 45.332C101.554 45.932 101.242 46.52 101.002 47.096C100.762 47.744 100.582 48.344 100.462 48.896C100.342 49.424 100.282 49.904 100.282 50.336C100.282 51.128 100.45 51.74 100.786 52.172C101.122 52.58 101.59 52.784 102.19 52.784C102.67 52.784 103.21 52.652 103.81 52.388C104.41 52.1 105.058 51.656 105.754 51.056C106.57 50.384 107.278 49.688 107.878 48.968C108.502 48.224 109.114 47.372 109.714 46.412C109.762 46.364 109.822 46.34 109.894 46.34C109.966 46.34 110.038 46.376 110.11 46.448C110.206 46.496 110.242 46.544 110.218 46.592C109.57 47.552 108.898 48.452 108.202 49.292C107.506 50.132 106.75 50.9 105.934 51.596C105.262 52.196 104.59 52.628 103.918 52.892C103.27 53.156 102.658 53.288 102.082 53.288ZM113.691 41.336C113.211 41.168 112.971 40.844 112.971 40.364C112.971 40.1 113.067 39.872 113.259 39.68C113.475 39.488 113.703 39.392 113.943 39.392C114.231 39.392 114.459 39.488 114.627 39.68C114.819 39.872 114.915 40.1 114.915 40.364C114.915 40.652 114.783 40.904 114.519 41.12C114.255 41.312 113.979 41.384 113.691 41.336ZM111.819 53.612C111.147 53.612 110.631 53.372 110.271 52.892C109.935 52.412 109.767 51.776 109.767 50.984C109.767 50.6 109.803 50.192 109.875 49.76C109.971 49.328 110.091 48.884 110.235 48.428C110.451 47.756 110.703 47.036 110.991 46.268C111.279 45.5 111.507 44.96 111.675 44.648C111.627 44.672 111.495 44.828 111.279 45.116C111.087 45.404 110.835 45.764 110.523 46.196C110.235 46.604 109.935 47.024 109.623 47.456C109.311 47.888 109.035 48.248 108.795 48.536C108.723 48.608 108.639 48.644 108.543 48.644C108.447 48.644 108.399 48.608 108.399 48.536C108.399 48.464 108.447 48.344 108.543 48.176C109.215 47.168 109.827 46.268 110.379 45.476C110.931 44.66 111.435 43.88 111.891 43.136C112.131 42.728 112.419 42.536 112.755 42.56C113.091 42.56 113.451 42.56 113.835 42.56C113.739 42.752 113.547 43.184 113.259 43.856C112.995 44.528 112.695 45.272 112.359 46.088C112.047 46.88 111.771 47.576 111.531 48.176C111.291 48.776 111.087 49.376 110.919 49.976C110.775 50.576 110.703 51.116 110.703 51.596C110.703 52.604 111.075 53.108 111.819 53.108C112.467 53.108 113.175 52.832 113.943 52.28C114.711 51.704 115.479 50.972 116.247 50.084C117.039 49.196 117.783 48.272 118.479 47.312C118.599 47.12 118.719 47.024 118.839 47.024C118.911 47.024 118.947 47.084 118.947 47.204C118.947 47.3 118.923 47.396 118.875 47.492V47.456C118.083 48.584 117.279 49.616 116.463 50.552C115.671 51.488 114.891 52.232 114.123 52.784C113.355 53.336 112.587 53.612 111.819 53.612ZM126.608 53.216C125.984 53.216 125.528 52.964 125.24 52.46C124.976 51.956 124.844 51.356 124.844 50.66C124.844 49.988 124.952 49.328 125.168 48.68C124.856 49.304 124.472 49.976 124.016 50.696C123.584 51.392 123.068 51.98 122.468 52.46C121.868 52.94 121.148 53.18 120.308 53.18C119.636 53.18 119.072 52.928 118.616 52.424C118.16 51.92 117.932 51.116 117.932 50.012C117.932 49.556 117.992 49.052 118.112 48.5C118.232 47.948 118.412 47.372 118.652 46.772C118.892 46.148 119.252 45.512 119.732 44.864C120.236 44.192 120.836 43.64 121.532 43.208C122.228 42.752 123.008 42.524 123.872 42.524C124.784 42.524 125.42 42.692 125.78 43.028C126.14 43.364 126.356 43.628 126.428 43.82C126.452 43.868 126.464 43.928 126.464 44C126.464 44.168 126.38 44.252 126.212 44.252C126.116 44.252 126.032 44.204 125.96 44.108C125.624 43.7 125.288 43.412 124.952 43.244C124.64 43.076 124.328 42.992 124.016 42.992C123.44 42.992 122.9 43.22 122.396 43.676C121.892 44.132 121.448 44.684 121.064 45.332C120.68 45.956 120.356 46.544 120.092 47.096C119.948 47.408 119.78 47.912 119.588 48.608C119.396 49.304 119.3 49.988 119.3 50.66C119.3 51.212 119.396 51.692 119.588 52.1C119.78 52.484 120.14 52.676 120.668 52.676C121.292 52.676 121.856 52.448 122.36 51.992C122.888 51.512 123.356 50.96 123.764 50.336C124.172 49.712 124.484 49.16 124.7 48.68C125.828 46.304 126.728 44.432 127.4 43.064C127.448 42.944 127.58 42.848 127.796 42.776C128.036 42.68 128.252 42.632 128.444 42.632C128.756 42.632 128.912 42.728 128.912 42.92C128.912 42.992 128.852 43.124 128.732 43.316C128.636 43.436 128.456 43.76 128.192 44.288C127.928 44.792 127.664 45.308 127.4 45.836C127.256 46.124 127.064 46.58 126.824 47.204C126.608 47.828 126.404 48.512 126.212 49.256C126.02 49.976 125.924 50.624 125.924 51.2C125.924 51.608 125.996 51.956 126.14 52.244C126.284 52.508 126.524 52.64 126.86 52.64C127.124 52.64 127.412 52.568 127.724 52.424C128.42 52.112 129.128 51.644 129.848 51.02C130.568 50.372 131.252 49.664 131.9 48.896C132.548 48.104 133.088 47.36 133.52 46.664C133.664 46.424 133.796 46.304 133.916 46.304C133.988 46.304 134.024 46.364 134.024 46.484C134.024 46.58 133.952 46.76 133.808 47.024C133.4 47.696 132.86 48.428 132.188 49.22C131.54 50.012 130.832 50.744 130.064 51.416C129.32 52.088 128.6 52.58 127.904 52.892C127.4 53.108 126.968 53.216 126.608 53.216ZM134.357 53.648C133.757 53.648 133.253 53.444 132.845 53.036C132.461 52.652 132.269 52.028 132.269 51.164C132.269 50.516 132.413 49.664 132.701 48.608C132.989 47.528 133.469 46.148 134.141 44.468C134.837 42.692 135.641 40.928 136.553 39.176C137.489 37.4 138.509 35.78 139.613 34.316C140.021 33.764 140.453 33.356 140.909 33.092C141.365 32.828 141.785 32.696 142.169 32.696C142.505 32.696 142.781 32.804 142.997 33.02C143.237 33.236 143.357 33.584 143.357 34.064C143.357 34.328 143.309 34.652 143.213 35.036C143.117 35.396 142.949 35.816 142.709 36.296C142.157 37.424 141.293 38.684 140.117 40.076C138.965 41.444 137.285 43.112 135.077 45.08C134.021 47.744 133.493 49.808 133.493 51.272C133.493 51.92 133.601 52.388 133.817 52.676C134.057 52.94 134.345 53.072 134.681 53.072C135.017 53.072 135.377 52.964 135.761 52.748C136.169 52.532 136.553 52.292 136.913 52.028C137.681 51.428 138.449 50.684 139.217 49.796C140.009 48.884 140.717 47.96 141.341 47.024C141.365 46.976 141.425 46.952 141.521 46.952C141.593 46.952 141.653 46.988 141.701 47.06C141.773 47.132 141.785 47.204 141.737 47.276C141.089 48.236 140.333 49.208 139.469 50.192C138.605 51.176 137.765 51.992 136.949 52.64C136.061 53.312 135.197 53.648 134.357 53.648ZM135.509 44.072C137.141 42.56 138.509 41.168 139.613 39.896C140.717 38.6 141.581 37.352 142.205 36.152C142.661 35.264 142.889 34.58 142.889 34.1C142.889 33.692 142.745 33.488 142.457 33.488C142.265 33.488 142.001 33.632 141.665 33.92C141.329 34.184 140.945 34.616 140.513 35.216C139.817 36.224 139.193 37.184 138.641 38.096C138.089 39.008 137.561 39.944 137.057 40.904C136.577 41.84 136.061 42.896 135.509 44.072Z" fill="#FAF4F4"></path><path d="M5.99766 4.836C7.05366 4.788 8.08566 4.764 9.09366 4.764C10.1257 4.764 11.2057 4.872 12.3337 5.088C13.4857 5.304 14.6137 5.712 15.7177 6.312C16.8457 6.888 17.7937 7.644 18.5617 8.58C19.3537 9.492 19.9897 10.704 20.4697 12.216C20.9497 13.728 21.1897 15.564 21.1897 17.724C21.1897 19.884 20.8297 21.828 20.1097 23.556C19.4137 25.26 18.4537 26.568 17.2297 27.48C14.8537 29.256 11.9857 30.144 8.62566 30.144C7.44966 30.144 6.21366 30.096 4.91766 30H3.11766V4.836H5.99766ZM6.10566 29.712C6.60966 29.76 7.24566 29.784 8.01366 29.784C8.78166 29.784 9.35766 29.772 9.74166 29.748C10.1257 29.724 10.6537 29.628 11.3257 29.46C11.9977 29.268 12.6217 29.016 13.1977 28.704C13.7737 28.392 14.3737 27.936 14.9977 27.336C15.6457 26.712 16.1977 25.98 16.6537 25.14C17.6857 23.172 18.2017 20.604 18.2017 17.436C18.2017 15.18 17.9257 13.236 17.3737 11.604C16.8217 9.948 16.1857 8.724 15.4657 7.932C14.7697 7.14 13.9177 6.516 12.9097 6.06C11.9017 5.58 11.0977 5.304 10.4977 5.232C9.89766 5.16 9.20166 5.124 8.40966 5.124C7.61766 5.124 6.84966 5.16 6.10566 5.232V29.712ZM39.4886 4.8V5.16H28.1486V15.96H38.6606V16.32H28.1486V29.64H40.2806V30H25.1606V4.8H39.4886ZM51.8507 30H48.8627V5.16H42.6347V4.8H58.1147V5.16H51.8507V30ZM57.8323 30H57.4003L68.1643 4.8L68.5603 4.62L77.6323 30H74.5723L71.7643 22.08H61.2523L57.8323 30ZM67.0483 8.688L61.3963 21.72H71.6563L67.0483 8.688ZM81.2348 5.16V4.8H87.6428V5.16H85.8788V29.64H87.6428V30H81.2348V29.64H82.8908V5.16H81.2348ZM106.376 30H92.6958V4.8H95.6838V29.64H106.376V30ZM123.277 6.312C121.093 5.472 119.029 5.052 117.085 5.052C115.165 5.052 113.665 5.46 112.585 6.276C111.505 7.092 110.965 8.22 110.965 9.66C110.965 11.412 111.877 12.768 113.701 13.728C114.517 14.136 115.405 14.52 116.365 14.88C117.349 15.216 118.333 15.6 119.317 16.032C120.301 16.464 121.201 16.956 122.017 17.508C122.833 18.06 123.493 18.828 123.997 19.812C124.501 20.772 124.753 22.008 124.753 23.52C124.753 25.008 124.333 26.28 123.493 27.336C122.653 28.392 121.633 29.112 120.433 29.496C119.257 29.856 117.877 30.036 116.293 30.036C113.341 30.036 110.821 29.304 108.733 27.84L108.913 27.552C109.705 28.176 110.725 28.692 111.973 29.1C113.245 29.484 114.541 29.676 115.861 29.676C117.805 29.676 119.461 29.232 120.829 28.344C122.221 27.432 122.917 26.1 122.917 24.348C122.917 22.428 122.005 20.928 120.181 19.848C119.365 19.368 118.465 18.924 117.481 18.516C116.521 18.108 115.549 17.688 114.565 17.256C113.581 16.8 112.681 16.296 111.865 15.744C110.041 14.544 109.129 12.84 109.129 10.632C109.129 8.88 109.717 7.464 110.893 6.384C112.069 5.28 113.833 4.728 116.185 4.728C118.561 4.728 120.973 5.136 123.421 5.952L123.277 6.312Z" fill="white"></path></svg> 