<?xml version="1.0" encoding="UTF-8"?> <svg xmlns="http://www.w3.org/2000/svg" width="120" height="142" viewBox="0 0 120 142" fill="none"><path fill-rule="evenodd" clip-rule="evenodd" d="M58.7992 6.5C58.7992 10.167 59.2352 13 59.7992 13C60.3632 13 60.7992 10.167 60.7992 6.5C60.7992 2.833 60.3632 0 59.7992 0C59.2352 0 58.7992 2.833 58.7992 6.5ZM40.5732 3.554C40.1742 3.956 42.1312 6.921 44.9222 10.142C49.7412 15.705 51.7992 17.172 51.7992 15.047C51.7992 13.461 41.3542 2.768 40.5732 3.554ZM72.5112 8.784C68.4212 12.937 66.2362 16.844 68.5682 15.833C69.7082 15.339 78.7992 5.399 78.7992 4.646C78.7992 3.08 76.8972 4.331 72.5112 8.784ZM31.9522 23.25C26.7412 36.426 21.7252 53.589 21.1822 60.098C20.6442 66.548 20.9102 68.465 23.2472 75C24.7222 79.125 26.1512 83.625 26.4212 85C27.0552 88.218 17.2732 128.075 15.5802 129.177C14.8762 129.636 11.2692 129.726 7.56724 129.378C1.79624 128.835 0.741232 128.987 0.184233 130.44C-0.173768 131.372 0.00623459 132.607 0.583235 133.184C1.69323 134.294 31.8192 142 35.0472 142C36.4362 142 36.8532 141.403 36.6192 139.75C36.3832 138.092 34.6542 136.73 30.0492 134.573C24.7332 132.084 23.8042 131.261 23.8322 129.073C23.8502 127.658 26.0382 117.806 28.6942 107.181L33.5232 87.861L40.0642 81.681C46.8952 75.226 50.5112 69.248 53.2052 59.957C55.0272 53.672 57.7542 35.445 57.7812 29.373L57.7992 25.247L47.3292 22.623C33.9622 19.274 33.5182 19.292 31.9522 23.25ZM71.4152 22.744L61.5312 25.296L62.1672 32.898C64.3852 59.379 69.9732 74.773 80.0012 82.027C82.3652 83.736 84.8702 86.22 85.5692 87.545C87.0712 90.395 95.7992 126.081 95.7992 129.374C95.7992 131.182 94.5232 132.243 89.5492 134.573C84.9442 136.73 83.2152 138.092 82.9792 139.75C82.7652 141.257 83.1742 142 84.2182 142C85.0752 142 93.4572 140.156 102.844 137.903C118.711 134.094 119.891 133.654 119.606 131.653C119.329 129.707 118.674 129.495 112.799 129.453C109.224 129.427 105.552 129.315 104.638 129.203C103.34 129.044 101.865 124.449 97.8882 108.172C95.0892 96.717 92.7992 86.646 92.7992 85.793C92.7992 84.94 93.9492 81.731 95.3542 78.661C100.607 67.187 99.4342 54.414 91.1282 32.633C89.2122 27.61 87.4022 22.713 87.1052 21.75C86.3902 19.43 83.5522 19.61 71.4152 22.744ZM30.9882 32.85C25.3212 48.031 23.7972 54.564 23.8092 63.644C23.8172 69.903 24.3252 72.588 26.3092 76.849C27.7412 79.925 28.7852 83.962 28.7662 86.349C28.7122 93.209 19.3212 129.139 17.1592 130.761C15.8842 131.717 13.3452 132.038 9.08724 131.783C5.67124 131.578 3.05023 131.584 3.26323 131.797C3.85423 132.388 30.0902 138.956 31.7992 138.94C32.6242 138.933 30.9042 137.769 27.9772 136.353C25.0502 134.937 22.2092 132.8 21.6642 131.604C20.9062 129.939 21.8712 124.656 25.7782 109.083C28.5862 97.893 31.5282 87.491 32.3172 85.966C33.1052 84.441 35.2882 82.243 37.1682 81.081C43.2352 77.331 48.4962 68.831 51.1802 58.44C52.4182 53.648 55.7992 31.418 55.7992 28.072C55.7992 27.617 51.8622 26.271 47.0492 25.08C42.2372 23.89 37.5702 22.697 36.6792 22.431C35.4042 22.051 34.1892 24.276 30.9882 32.85ZM76.2992 23.98C72.4492 24.969 68.0592 26.063 66.5432 26.41C63.8322 27.031 63.7972 27.137 64.4062 32.771C67.0932 57.596 71.2602 70.484 78.9182 77.653C81.1782 79.769 84.2442 82.625 85.7322 84C88.0662 86.158 89.1552 89.472 93.6832 108.194C97.7602 125.053 98.6932 130.329 97.8692 131.869C97.2862 132.959 94.3322 135.022 91.3042 136.454C88.2762 137.887 85.7992 139.208 85.7992 139.39C85.7992 139.872 115.686 132.446 116.328 131.804C116.626 131.506 113.752 131.485 109.941 131.758C103.469 132.221 102.912 132.097 101.508 129.877C99.6272 126.901 90.7992 90.307 90.7992 85.484C90.7992 83.524 91.7342 80.087 92.8772 77.847C97.4212 68.941 97.0892 57.065 91.8692 41.807C87.3442 28.579 84.7082 21.993 83.9772 22.091C83.6042 22.141 80.1492 22.991 76.2992 23.98ZM42.7992 57.196C40.8742 57.754 36.4872 57.99 33.0492 57.721L26.7992 57.23V62.966C26.7992 71.519 29.8882 79 33.4192 79C37.3922 79 45.1262 68.319 47.7322 59.235C48.7642 55.636 48.5212 55.536 42.7992 57.196ZM71.7992 57.443C71.7992 58.258 72.7262 61.404 73.8602 64.433C76.1462 70.544 83.8522 79.333 86.4722 78.818C90.0502 78.114 92.2762 73.191 92.6402 65.174L92.9892 57.482L85.1442 57.491C80.8292 57.496 76.0612 57.154 74.5492 56.731C72.4402 56.141 71.7992 56.307 71.7992 57.443Z" fill="black"></path></svg> 