<?xml version="1.0" encoding="UTF-8"?> <svg xmlns="http://www.w3.org/2000/svg" width="156" height="69" viewBox="0 0 156 69" fill="none"><path d="M16.5281 30H2.84813V4.8H5.83613V29.64H16.5281V30ZM26.8939 30.144C24.3739 30.144 22.3219 29.424 20.7379 27.984C19.1539 26.544 18.3619 24.324 18.3619 21.324C18.3619 18.324 19.1779 15.996 20.8099 14.34C22.4659 12.684 24.5539 11.856 27.0739 11.856C29.6179 11.856 31.6819 12.576 33.2659 14.016C34.8499 15.456 35.6419 17.676 35.6419 20.676C35.6419 23.676 34.8139 26.004 33.1579 27.66C31.5259 29.316 29.4379 30.144 26.8939 30.144ZM27.1459 12.144C25.3219 12.144 23.8099 12.96 22.6099 14.592C21.4099 16.2 20.8099 18.456 20.8099 21.36C20.8099 24.24 21.3619 26.376 22.4659 27.768C23.5699 29.16 25.0339 29.856 26.8579 29.856C28.6819 29.856 30.1939 29.052 31.3939 27.444C32.5939 25.812 33.1939 23.556 33.1939 20.676C33.1939 17.772 32.6419 15.624 31.5379 14.232C30.4339 12.84 28.9699 12.144 27.1459 12.144ZM46.9304 12.144C45.2264 12.144 43.7984 12.96 42.6464 14.592C41.5184 16.224 40.9544 18.48 40.9544 21.36C40.9544 24.24 41.4704 26.376 42.5024 27.768C43.5584 29.16 44.9384 29.856 46.6424 29.856C48.7784 29.856 50.6744 29.496 52.3304 28.776L52.4384 29.028C50.7344 29.772 48.7424 30.144 46.4624 30.144C44.1824 30.144 42.2864 29.424 40.7744 27.984C39.2624 26.544 38.5064 24.324 38.5064 21.324C38.5064 18.324 39.2984 15.996 40.8824 14.34C42.4664 12.684 44.4824 11.856 46.9304 11.856C48.2984 11.856 49.5584 12.168 50.7104 12.792C51.8864 13.416 52.7504 14.364 53.3024 15.636H50.9984C50.6384 14.46 50.0864 13.584 49.3424 13.008C48.6224 12.432 47.8184 12.144 46.9304 12.144ZM70.3549 30C68.7229 30 67.6069 29.688 67.0069 29.064C66.4549 28.536 66.1789 28.08 66.1789 27.696V26.94C65.0029 29.076 63.1189 30.144 60.5269 30.144C57.5029 30.144 55.7869 28.776 55.3789 26.04C55.3309 25.752 55.3069 25.464 55.3069 25.176C55.3069 24.864 55.3549 24.528 55.4509 24.168C55.5469 23.808 55.8229 23.412 56.2789 22.98C57.1909 22.116 59.1949 21.588 62.2909 21.396C63.0589 21.324 63.7669 21.288 64.4149 21.288C65.0629 21.288 65.6509 21.312 66.1789 21.36V15.384C66.1309 15.36 66.1309 15.252 66.1789 15.06C66.2269 14.844 66.1789 14.58 66.0349 14.268C65.9149 13.932 65.7469 13.608 65.5309 13.296C65.3149 12.984 64.9309 12.72 64.3789 12.504C63.8269 12.264 63.1069 12.144 62.2189 12.144C61.3309 12.144 60.2869 12.312 59.0869 12.648C57.9109 12.96 57.0469 13.272 56.4949 13.584L56.3509 13.332C58.4869 12.348 60.6589 11.856 62.8669 11.856C65.3389 11.856 66.9709 12.3 67.7629 13.188C68.3869 13.884 68.6989 14.616 68.6989 15.384V27.444C68.6989 28.14 68.8309 28.68 69.0949 29.064C69.3829 29.424 69.6709 29.616 69.9589 29.64L70.3549 29.712H71.4709V30H70.3549ZM61.1029 29.856C62.3749 29.856 63.5149 29.424 64.5229 28.56C65.5549 27.672 66.1069 26.82 66.1789 26.004V21.648C65.5309 21.6 64.8709 21.576 64.1989 21.576C63.5509 21.576 62.9029 21.612 62.2549 21.684C60.4309 21.9 59.2429 22.308 58.6909 22.908C58.1389 23.508 57.8629 24.336 57.8629 25.392C57.8629 25.584 57.8749 25.8 57.8989 26.04C58.1149 28.584 59.1829 29.856 61.1029 29.856ZM73.9748 12.288V12H74.7308V8.4H77.2508V12H82.7588V12.288H77.2508V25.392C77.2508 26.952 77.4188 28.08 77.7548 28.776C78.1148 29.472 78.8468 29.82 79.9508 29.82C81.0788 29.82 82.2188 29.592 83.3708 29.136L83.4788 29.424C82.2788 29.88 80.8988 30.108 79.3388 30.108C77.8028 30.108 76.6508 29.796 75.8828 29.172C75.1148 28.524 74.7308 27.252 74.7308 25.356V12.288H73.9748ZM88.7604 30C87.7764 30 87.0204 29.784 86.4924 29.352C85.9884 28.92 85.7244 28.488 85.7004 28.056L85.6644 27.444V12H88.1844V27.444C88.1844 28.14 88.3164 28.68 88.5804 29.064C88.8684 29.424 89.1444 29.616 89.4084 29.64L89.8404 29.712H90.9564V30H88.7604ZM85.8804 7.968C85.5924 7.68 85.4484 7.32 85.4484 6.888C85.4484 6.456 85.5924 6.096 85.8804 5.808C86.1684 5.496 86.5284 5.34 86.9604 5.34C87.3924 5.34 87.7524 5.496 88.0404 5.808C88.3524 6.096 88.5084 6.456 88.5084 6.888C88.5084 7.32 88.3524 7.68 88.0404 7.968C87.7524 8.256 87.3924 8.4 86.9604 8.4C86.5284 8.4 86.1684 8.256 85.8804 7.968ZM100.581 30.144C98.0614 30.144 96.0094 29.424 94.4254 27.984C92.8414 26.544 92.0494 24.324 92.0494 21.324C92.0494 18.324 92.8654 15.996 94.4974 14.34C96.1534 12.684 98.2414 11.856 100.761 11.856C103.305 11.856 105.369 12.576 106.953 14.016C108.537 15.456 109.329 17.676 109.329 20.676C109.329 23.676 108.501 26.004 106.845 27.66C105.213 29.316 103.125 30.144 100.581 30.144ZM100.833 12.144C99.0094 12.144 97.4974 12.96 96.2974 14.592C95.0974 16.2 94.4974 18.456 94.4974 21.36C94.4974 24.24 95.0494 26.376 96.1534 27.768C97.2574 29.16 98.7214 29.856 100.545 29.856C102.369 29.856 103.881 29.052 105.081 27.444C106.281 25.812 106.881 23.556 106.881 20.676C106.881 17.772 106.329 15.624 105.225 14.232C104.121 12.84 102.657 12.144 100.833 12.144ZM126.431 30C125.447 30 124.691 29.784 124.163 29.352C123.659 28.92 123.395 28.488 123.371 28.056L123.335 27.444V16.14C123.335 14.244 122.843 13.032 121.859 12.504C121.355 12.264 120.731 12.144 119.987 12.144C118.451 12.144 117.071 12.756 115.847 13.98C114.623 15.18 114.011 16.26 114.011 17.22V30H111.491V12H114.011V16.104C114.419 15.072 115.175 14.112 116.279 13.224C117.383 12.312 118.595 11.856 119.915 11.856C121.235 11.856 122.303 11.988 123.119 12.252C123.959 12.492 124.571 12.84 124.955 13.296C125.555 14.04 125.855 15 125.855 16.176V27.444C125.855 28.14 125.987 28.68 126.251 29.064C126.539 29.424 126.827 29.616 127.115 29.64L127.511 29.712H128.627V30H126.431Z" fill="#252222"></path><path d="M60.2987 66.72C59.4187 66.5067 58.9787 65.6533 58.9787 64.16C58.9787 62.7467 59.3787 60.8133 60.1787 58.36C60.9521 55.9333 62.0454 53.16 63.4588 50.04C63.8588 49.16 64.3654 48.0533 64.9788 46.72C65.6188 45.36 66.2988 43.9467 67.0188 42.48C67.7654 40.9867 68.4988 39.6 69.2188 38.32C69.9388 37.0133 70.5921 35.9867 71.1788 35.24C71.6321 34.6267 72.1121 34.1733 72.6188 33.88C73.1254 33.5867 73.5921 33.44 74.0188 33.44C74.3921 33.44 74.6988 33.56 74.9388 33.8C75.2054 34.04 75.3388 34.4267 75.3388 34.96C75.3388 35.2533 75.2854 35.6133 75.1788 36.04C75.0721 36.44 74.8854 36.9067 74.6188 37.44C74.0054 38.6933 72.9788 40.28 71.5388 42.2C70.0988 44.12 68.1521 46.16 65.6988 48.32C65.4054 48.8533 65.0854 49.48 64.7388 50.2C64.4188 50.92 64.0721 51.6933 63.6988 52.52C63.4854 53.0267 63.2721 53.5333 63.0588 54.04C63.2721 54.12 63.4588 54.28 63.6188 54.52C63.8054 54.76 63.9121 54.88 63.9388 54.88C64.0721 54.9067 64.2054 54.9333 64.3388 54.96C64.4988 54.96 64.6454 54.96 64.7788 54.96C65.8188 54.96 66.8454 54.7067 67.8588 54.2C68.8988 53.6667 69.8721 52.96 70.7788 52.08C71.6854 51.2 72.4988 50.2267 73.2188 49.16C73.2988 49.0267 73.3921 48.96 73.4988 48.96C73.6054 48.96 73.6721 49.0267 73.6988 49.16C73.7521 49.2667 73.7521 49.3733 73.6988 49.48C72.5521 51.1067 71.4721 52.3467 70.4588 53.2C69.4454 54.0267 68.5254 54.6 67.6988 54.92C66.8721 55.2133 66.1654 55.3733 65.5788 55.4C65.0188 55.4267 64.6054 55.44 64.3388 55.44C64.5521 55.7067 64.7654 56.16 64.9788 56.8C65.2188 57.44 65.3388 58.2267 65.3388 59.16C65.3388 59.8 65.2588 60.48 65.0988 61.2C64.7521 62.64 64.2588 63.7733 63.6188 64.6C62.9788 65.4533 62.3521 66.04 61.7387 66.36C61.1254 66.68 60.6454 66.8 60.2987 66.72ZM66.1388 47.2C67.9521 45.5467 69.5521 43.8133 70.9388 42C72.3254 40.1867 73.3654 38.6133 74.0588 37.28C74.5654 36.2933 74.8188 35.5333 74.8188 35C74.8188 34.5467 74.6588 34.32 74.3388 34.32C74.1254 34.32 73.8321 34.48 73.4588 34.8C73.0854 35.0933 72.6588 35.5733 72.1788 36.24C70.9788 37.92 69.8988 39.6933 68.9388 41.56C67.9788 43.4 67.0454 45.28 66.1388 47.2ZM59.8587 64.84C59.8587 65.7733 60.1387 66.24 60.6987 66.24C60.9921 66.24 61.3387 66.1067 61.7387 65.84C62.1121 65.5733 62.5121 65.08 62.9388 64.36C63.3654 63.64 63.7788 62.6 64.1788 61.24C64.4454 60.3333 64.5788 59.4667 64.5788 58.64C64.5788 57.76 64.4721 57.04 64.2588 56.48C64.0721 55.92 63.9121 55.5867 63.7788 55.48C63.7521 55.48 63.6454 55.48 63.4588 55.48C63.2721 55.4533 63.0721 55.3867 62.8588 55.28C62.7521 55.2533 62.6721 55.2133 62.6188 55.16C62.1387 56.3867 61.6854 57.6133 61.2587 58.84C60.8321 60.0667 60.4987 61.2 60.2587 62.24C59.9921 63.3067 59.8587 64.1733 59.8587 64.84ZM76.2366 56.52C75.0099 56.52 74.1166 56.0667 73.5566 55.16C72.9966 54.2267 72.7166 53.1333 72.7166 51.88C72.7166 50.7067 72.9299 49.52 73.3566 48.32C73.7832 47.12 74.3832 46.12 75.1566 45.32C75.9299 44.52 76.8099 44.12 77.7966 44.12C77.9832 44.12 78.1032 44.1467 78.1566 44.2C78.4499 43.88 78.7699 43.6267 79.1166 43.44C79.4899 43.2267 79.8899 43.12 80.3166 43.12C81.2499 43.12 81.9032 43.4533 82.2766 44.12C82.6499 44.76 82.8366 45.56 82.8366 46.52C82.8366 47.4533 82.6899 48.4533 82.3966 49.52C82.1032 50.5867 81.7299 51.5733 81.2766 52.48C80.8232 53.3867 80.3432 54.0933 79.8366 54.6C79.9699 54.6267 80.1032 54.6533 80.2366 54.68C80.3699 54.68 80.5032 54.68 80.6366 54.68C81.5966 54.68 82.4766 54.4267 83.2766 53.92C84.0766 53.3867 84.8099 52.7467 85.4766 52C86.1432 51.2533 86.7566 50.52 87.3166 49.8C87.3966 49.72 87.4632 49.68 87.5166 49.68C87.6232 49.68 87.6899 49.7333 87.7166 49.84C87.7432 49.9467 87.7166 50.0667 87.6366 50.2C87.3966 50.4933 87.0499 50.92 86.5966 51.48C86.1432 52.04 85.5966 52.6133 84.9566 53.2C84.3166 53.7867 83.6232 54.28 82.8766 54.68C82.1299 55.08 81.3566 55.28 80.5566 55.28C80.3432 55.28 80.1432 55.2667 79.9566 55.24C79.7699 55.1867 79.5699 55.1333 79.3566 55.08C78.9299 55.5067 78.4499 55.8533 77.9166 56.12C77.4099 56.3867 76.8499 56.52 76.2366 56.52ZM79.1566 54.36C79.7432 53.72 80.2232 52.96 80.5966 52.08C80.9699 51.2 81.2499 50.2933 81.4366 49.36C81.6499 48.4267 81.7566 47.56 81.7566 46.76C81.7566 45.8267 81.6232 45.0667 81.3566 44.48C81.1166 43.8933 80.7432 43.6667 80.2366 43.8C79.5699 43.96 78.9966 44.3467 78.5166 44.96C78.0366 45.5733 77.6632 46.3067 77.3966 47.16C77.1566 48.0133 77.0366 48.88 77.0366 49.76C77.0366 50.7467 77.1966 51.6667 77.5166 52.52C77.8632 53.3733 78.4099 53.9867 79.1566 54.36ZM76.4366 55.84C76.8899 55.84 77.3032 55.7333 77.6766 55.52C78.0499 55.3067 78.3966 55.0667 78.7166 54.8C77.9432 54.3467 77.3699 53.6267 76.9966 52.64C76.6499 51.6533 76.4766 50.6133 76.4766 49.52C76.4766 48.6933 76.5699 47.88 76.7566 47.08C76.9699 46.28 77.2499 45.5733 77.5966 44.96H77.4766C77.0499 44.96 76.6232 45.1867 76.1966 45.64C75.7966 46.0933 75.4366 46.6933 75.1166 47.44C74.7966 48.16 74.5299 48.9467 74.3166 49.8C74.1299 50.6267 74.0366 51.44 74.0366 52.24C74.0366 53.2267 74.2232 54.08 74.5966 54.8C74.9699 55.4933 75.5832 55.84 76.4366 55.84ZM92.7278 56.08C92.1678 56.08 91.7145 55.9067 91.3678 55.56C91.0211 55.2133 90.8478 54.72 90.8478 54.08C90.8478 53.9467 90.8478 53.8133 90.8478 53.68C90.8745 53.52 90.9011 53.3733 90.9278 53.24C91.1945 52.1467 91.5678 51.24 92.0478 50.52C92.5278 49.8 93.0078 48.92 93.4878 47.88C93.6211 47.64 93.7011 47.4267 93.7278 47.24C93.7811 47.0267 93.8078 46.84 93.8078 46.68C93.8078 46.2533 93.6211 45.9733 93.2478 45.84C92.9011 45.7067 92.4478 45.6267 91.8878 45.6C91.3545 45.5467 90.7945 45.4533 90.2078 45.32C90.1011 45.64 89.8745 46.2 89.5278 47C89.2078 47.7733 88.8478 48.4533 88.4478 49.04C88.0478 49.68 87.6211 50.2667 87.1678 50.8C86.7145 51.3333 86.3811 51.72 86.1678 51.96C85.9278 52.2 85.7678 52.32 85.6878 52.32C85.6078 52.32 85.5678 52.2667 85.5678 52.16C85.5678 52.0533 85.7011 51.84 85.9678 51.52C86.1278 51.36 86.4211 51 86.8478 50.44C87.2745 49.88 87.6745 49.3067 88.0478 48.72C88.4478 48.1067 88.7945 47.44 89.0878 46.72C89.3811 46 89.5811 45.5067 89.6878 45.24C89.1011 45.08 88.6478 44.68 88.3278 44.04C88.0078 43.3733 87.8478 42.6933 87.8478 42C87.8478 41.2267 88.0211 40.6 88.3678 40.12C88.7411 39.64 89.1145 39.4 89.4878 39.4C89.8078 39.4 90.0878 39.6 90.3278 40C90.5945 40.4 90.7278 41.08 90.7278 42.04C90.7278 42.52 90.6878 43 90.6078 43.48C90.5278 43.96 90.4478 44.36 90.3678 44.68C91.0878 44.8133 91.8345 44.88 92.6078 44.88C93.3811 44.8533 94.0211 44.92 94.5278 45.08C95.0611 45.2133 95.3278 45.6 95.3278 46.24C95.3278 46.7467 95.1011 47.4533 94.6478 48.36C94.1678 49.3467 93.6745 50.32 93.1678 51.28C92.6611 52.24 92.2745 53.2 92.0078 54.16C91.9811 54.2667 91.9545 54.3733 91.9278 54.48C91.9278 54.56 91.9278 54.6533 91.9278 54.76C91.9278 55.3467 92.2478 55.64 92.8878 55.64C93.1278 55.64 93.4478 55.5733 93.8478 55.44C94.6211 55.12 95.4078 54.5867 96.2078 53.84C97.0345 53.0667 97.8078 52.24 98.5278 51.36C99.2745 50.48 99.8745 49.68 100.328 48.96C100.514 48.6933 100.674 48.56 100.808 48.56C100.888 48.56 100.928 48.6133 100.928 48.72C100.928 48.8267 100.848 49.0267 100.688 49.32C100.234 50.0667 99.6345 50.88 98.8878 51.76C98.1411 52.6133 97.3411 53.4133 96.4878 54.16C95.6345 54.9067 94.8211 55.4533 94.0478 55.8C93.5945 55.9867 93.1545 56.08 92.7278 56.08ZM89.8078 44.6C89.8345 44.4667 89.8745 44.1733 89.9278 43.72C89.9811 43.2667 90.0078 42.7867 90.0078 42.28C90.0078 41.64 89.9411 41.1733 89.8078 40.88C89.6745 40.5867 89.5278 40.44 89.3678 40.44C89.1811 40.44 89.0078 40.6 88.8478 40.92C88.7145 41.24 88.6611 41.68 88.6878 42.24C88.7411 43.2 88.9011 43.8267 89.1678 44.12C89.4345 44.3867 89.6478 44.5467 89.8078 44.6ZM105.927 68.76C105.26 68.76 104.713 68.6 104.287 68.28C103.833 67.9867 103.607 67.5467 103.607 66.96C103.607 66.5867 103.713 66.1733 103.927 65.72C104.113 65.2667 104.433 64.7733 104.887 64.24C105.633 63.36 106.593 62.5333 107.767 61.76C108.967 61.0133 110.207 60.2933 111.487 59.6C112.767 58.9333 113.9 58.2933 114.887 57.68C115.1 56.5867 115.34 55.5333 115.607 54.52C115.9 53.48 116.18 52.4667 116.447 51.48C116.073 52.2533 115.62 53.0267 115.087 53.8C114.58 54.5467 114.007 55.1733 113.367 55.68C112.753 56.16 112.073 56.4 111.327 56.4C110.713 56.4 110.22 56.1467 109.847 55.64C109.5 55.1333 109.327 54.48 109.327 53.68C109.327 52.8267 109.54 51.92 109.967 50.96C110.26 50.32 110.567 49.68 110.887 49.04C111.207 48.3733 111.473 47.8133 111.687 47.36C111.9 46.9067 111.98 46.6933 111.927 46.72C111.873 46.7467 111.673 47 111.327 47.48C111.007 47.9333 110.633 48.4667 110.207 49.08C109.78 49.6667 109.393 50.1733 109.047 50.6C108.967 50.7067 108.873 50.76 108.767 50.76C108.66 50.76 108.607 50.7067 108.607 50.6C108.607 50.4933 108.66 50.3733 108.767 50.24C109.487 49.12 110.1 48.1867 110.607 47.44C111.14 46.6667 111.66 45.8667 112.167 45.04C112.433 44.5867 112.753 44.3733 113.127 44.4C113.5 44.4 113.9 44.4 114.327 44.4C114.22 44.7467 114.007 45.2933 113.687 46.04C113.393 46.76 113.06 47.5467 112.687 48.4C112.34 49.2267 112.02 49.9733 111.727 50.64C111.38 51.4667 111.1 52.24 110.887 52.96C110.673 53.6533 110.567 54.24 110.567 54.72C110.567 55.5467 110.887 55.96 111.527 55.96C112.033 55.96 112.62 55.6533 113.287 55.04C113.953 54.4267 114.593 53.64 115.207 52.68C115.82 51.6933 116.313 50.6933 116.687 49.68C116.74 49.5733 116.833 49.32 116.967 48.92C117.1 48.4933 117.247 48.04 117.407 47.56C117.567 47.0533 117.713 46.5867 117.847 46.16C117.98 45.7333 118.06 45.4667 118.087 45.36C118.353 44.9067 118.673 44.64 119.047 44.56C119.42 44.4533 119.82 44.4 120.247 44.4C120.007 44.7467 119.713 45.3733 119.367 46.28C119.02 47.1867 118.647 48.2533 118.247 49.48C117.873 50.7067 117.513 51.9867 117.167 53.32C116.82 54.6267 116.527 55.88 116.287 57.08C117.727 56.12 118.913 55.2133 119.847 54.36C120.78 53.5067 121.593 52.6533 122.287 51.8C122.98 50.92 123.673 49.9867 124.367 49C124.447 48.8933 124.54 48.84 124.647 48.84C124.78 48.84 124.847 48.92 124.847 49.08C124.847 49.2133 124.793 49.3467 124.687 49.48C124.1 50.28 123.433 51.1467 122.687 52.08C121.94 52.9867 121.033 53.9467 119.967 54.96C118.927 55.9467 117.633 56.96 116.087 58C115.66 60.08 114.967 61.8 114.007 63.16C113.047 64.5467 112.02 65.64 110.927 66.44C109.86 67.2667 108.913 67.8667 108.087 68.24C107.367 68.5867 106.647 68.76 105.927 68.76ZM105.727 68.16C106.473 68.16 107.193 67.9467 107.887 67.52C109.3 66.6667 110.567 65.5067 111.687 64.04C112.807 62.6 113.767 60.76 114.567 58.52C113.633 59.0533 112.593 59.6267 111.447 60.24C110.327 60.88 109.247 61.5467 108.207 62.24C107.167 62.96 106.313 63.7467 105.647 64.6C105.193 65.16 104.873 65.64 104.687 66.04C104.473 66.4667 104.367 66.8267 104.367 67.12C104.367 67.4667 104.5 67.72 104.767 67.88C105.033 68.0667 105.353 68.16 105.727 68.16ZM127.33 56.52C126.104 56.52 125.21 56.0667 124.65 55.16C124.09 54.2267 123.81 53.1333 123.81 51.88C123.81 50.7067 124.024 49.52 124.45 48.32C124.877 47.12 125.477 46.12 126.25 45.32C127.024 44.52 127.904 44.12 128.89 44.12C129.077 44.12 129.197 44.1467 129.25 44.2C129.544 43.88 129.864 43.6267 130.21 43.44C130.584 43.2267 130.984 43.12 131.41 43.12C132.344 43.12 132.997 43.4533 133.37 44.12C133.744 44.76 133.93 45.56 133.93 46.52C133.93 47.4533 133.784 48.4533 133.49 49.52C133.197 50.5867 132.824 51.5733 132.37 52.48C131.917 53.3867 131.437 54.0933 130.93 54.6C131.064 54.6267 131.197 54.6533 131.33 54.68C131.464 54.68 131.597 54.68 131.73 54.68C132.69 54.68 133.57 54.4267 134.37 53.92C135.17 53.3867 135.904 52.7467 136.57 52C137.237 51.2533 137.85 50.52 138.41 49.8C138.49 49.72 138.557 49.68 138.61 49.68C138.717 49.68 138.784 49.7333 138.81 49.84C138.837 49.9467 138.81 50.0667 138.73 50.2C138.49 50.4933 138.144 50.92 137.69 51.48C137.237 52.04 136.69 52.6133 136.05 53.2C135.41 53.7867 134.717 54.28 133.97 54.68C133.224 55.08 132.45 55.28 131.65 55.28C131.437 55.28 131.237 55.2667 131.05 55.24C130.864 55.1867 130.664 55.1333 130.45 55.08C130.024 55.5067 129.544 55.8533 129.01 56.12C128.504 56.3867 127.944 56.52 127.33 56.52ZM130.25 54.36C130.837 53.72 131.317 52.96 131.69 52.08C132.064 51.2 132.344 50.2933 132.53 49.36C132.744 48.4267 132.85 47.56 132.85 46.76C132.85 45.8267 132.717 45.0667 132.45 44.48C132.21 43.8933 131.837 43.6667 131.33 43.8C130.664 43.96 130.09 44.3467 129.61 44.96C129.13 45.5733 128.757 46.3067 128.49 47.16C128.25 48.0133 128.13 48.88 128.13 49.76C128.13 50.7467 128.29 51.6667 128.61 52.52C128.957 53.3733 129.504 53.9867 130.25 54.36ZM127.53 55.84C127.984 55.84 128.397 55.7333 128.77 55.52C129.144 55.3067 129.49 55.0667 129.81 54.8C129.037 54.3467 128.464 53.6267 128.09 52.64C127.744 51.6533 127.57 50.6133 127.57 49.52C127.57 48.6933 127.664 47.88 127.85 47.08C128.064 46.28 128.344 45.5733 128.69 44.96H128.57C128.144 44.96 127.717 45.1867 127.29 45.64C126.89 46.0933 126.53 46.6933 126.21 47.44C125.89 48.16 125.624 48.9467 125.41 49.8C125.224 50.6267 125.13 51.44 125.13 52.24C125.13 53.2267 125.317 54.08 125.69 54.8C126.064 55.4933 126.677 55.84 127.53 55.84ZM140.502 56.24C139.995 56.24 139.555 56.04 139.182 55.64C138.808 55.2133 138.622 54.6 138.622 53.8C138.622 53.4267 138.675 53 138.782 52.52C138.888 52.04 139.075 51.52 139.342 50.96C139.955 49.6267 140.408 48.6667 140.702 48.08C140.995 47.4667 141.182 47.08 141.262 46.92C141.342 46.76 141.355 46.6933 141.302 46.72C141.248 46.7467 141.048 47 140.702 47.48C140.382 47.9333 140.008 48.4667 139.582 49.08C139.182 49.6667 138.795 50.1733 138.422 50.6C138.342 50.7067 138.248 50.76 138.142 50.76C138.035 50.76 137.982 50.7067 137.982 50.6C137.982 50.4933 138.035 50.3733 138.142 50.24C138.888 49.12 139.515 48.1867 140.022 47.44C140.528 46.6667 141.035 45.8667 141.542 45.04C141.808 44.5867 142.128 44.3733 142.502 44.4C142.875 44.4 143.275 44.4 143.702 44.4C143.595 44.5867 143.382 45.0533 143.062 45.8C142.742 46.52 142.395 47.3333 142.022 48.24C141.648 49.12 141.302 49.8933 140.982 50.56C140.635 51.36 140.355 52.0933 140.142 52.76C139.928 53.4267 139.822 54 139.822 54.48C139.822 55.2267 140.102 55.6533 140.662 55.76C141.008 55.84 141.408 55.68 141.862 55.28C142.342 54.88 142.822 54.3467 143.302 53.68C143.808 52.9867 144.288 52.2267 144.742 51.4C145.222 50.5733 145.635 49.7733 145.982 49C146.302 48.28 146.608 47.56 146.902 46.84C147.195 46.0933 147.448 45.4667 147.662 44.96C147.795 44.6667 148.128 44.5067 148.662 44.48C149.195 44.4267 149.635 44.4 149.982 44.4C149.742 44.64 149.422 45.1333 149.022 45.88C148.622 46.6267 148.222 47.4933 147.822 48.48C147.422 49.4667 147.088 50.4533 146.822 51.44C146.555 52.4 146.422 53.24 146.422 53.96C146.422 55.0267 146.782 55.56 147.502 55.56C147.635 55.56 147.768 55.5467 147.902 55.52C148.062 55.4933 148.235 55.44 148.422 55.36C149.195 55.04 149.982 54.52 150.782 53.8C151.582 53.08 152.328 52.28 153.022 51.4C153.742 50.52 154.342 49.7067 154.822 48.96C154.982 48.6933 155.128 48.56 155.262 48.56C155.342 48.56 155.382 48.6267 155.382 48.76C155.382 48.9467 155.315 49.1467 155.182 49.36C154.702 50.1067 154.088 50.92 153.342 51.8C152.622 52.68 151.848 53.4933 151.022 54.24C150.195 54.9867 149.382 55.5333 148.582 55.88C148.022 56.12 147.542 56.24 147.142 56.24C146.422 56.24 145.888 55.9333 145.542 55.32C145.222 54.7067 145.062 54 145.062 53.2C145.062 52.4533 145.155 51.7867 145.342 51.2C144.675 52.5333 143.928 53.7067 143.102 54.72C142.302 55.7333 141.435 56.24 140.502 56.24Z" fill="#252222"></path></svg> 