<?xml version="1.0" encoding="UTF-8"?> <svg xmlns="http://www.w3.org/2000/svg" width="99" height="153" viewBox="0 0 99 153" fill="none"><path fill-rule="evenodd" clip-rule="evenodd" d="M38.7817 1.38288C21.9397 6.01988 10.0547 20.0749 8.99371 36.6119C8.42971 45.4009 9.12971 47.6759 18.0297 65.9619C22.4367 75.0159 24.6297 80.5599 23.9017 80.8019C23.2617 81.0159 20.0327 82.9969 16.7247 85.2059C-8.05129 101.75 -4.77929 133.213 23.0867 146.389C32.4667 150.824 39.3557 152.344 49.7817 152.278C65.1487 152.182 78.8407 146.941 88.3307 137.521C104.372 121.601 101.603 98.4869 82.0827 85.3649C78.6927 83.0859 75.3337 81.0259 74.6197 80.7879C73.6967 80.4809 75.1177 76.5529 79.5187 67.2469C88.3057 48.6629 90.1177 42.8609 89.2677 36.0329C86.2187 11.5629 62.0517 -5.02412 38.7817 1.38288ZM37.6907 4.83988C22.6357 9.83288 11.8647 23.7729 11.8057 38.3419C11.7737 46.2369 14.9587 53.9179 30.7457 84.0089C37.8147 97.4839 44.8817 111.091 46.4497 114.247L49.2997 119.985L66.5247 85.7469C75.9987 66.9159 84.4697 49.2589 85.3507 46.5089C89.7557 32.7499 80.4617 14.4079 65.3037 6.94488C57.0417 2.87788 46.1187 2.04488 37.6907 4.83988ZM41.0557 28.1019C33.0437 32.0679 29.9577 41.1769 33.9747 49.0009C38.3007 57.4249 47.6667 60.5009 55.7647 56.1579C67.5727 49.8249 66.6177 32.5989 54.1707 27.3979C49.5547 25.4689 45.9887 25.6609 41.0557 28.1019ZM42.0857 30.9649C35.6287 34.9019 33.6797 40.7299 36.6077 47.3489C38.9447 52.6329 42.7427 55.0089 48.8497 55.0089C52.3567 55.0089 53.6317 54.3939 56.8997 51.1269C60.3707 47.6559 60.7817 46.7159 60.7817 42.2619C60.7817 31.9539 50.5767 25.7879 42.0857 30.9649ZM21.2817 85.9269C15.0807 89.5229 8.68771 96.0869 5.61571 102.009C2.18371 108.627 2.33571 119.604 5.95671 126.529C10.9767 136.127 22.0587 144.283 34.4747 147.517C42.1417 149.514 57.9277 149.452 64.8497 147.397C77.9567 143.506 88.2687 135.751 92.9327 126.279C94.7657 122.558 95.2817 119.86 95.2817 114.009C95.2817 104.945 92.8557 99.2509 86.1947 92.6849C82.1257 88.6729 72.1447 82.3129 71.2777 83.1799C71.0747 83.3829 66.2647 92.9899 60.5877 104.529C54.9117 116.068 49.9737 125.734 49.6167 126.009C49.2587 126.284 44.4337 117.496 38.8947 106.48C33.3567 95.4639 28.2527 85.6799 27.5537 84.7389C26.3747 83.1519 25.9177 83.2379 21.2817 85.9269Z" fill="black"></path></svg> 