<?xml version="1.0" standalone="no"?>
<!DOCTYPE svg PUBLIC "-//W3C//DTD SVG 20010904//EN"
 "http://www.w3.org/TR/2001/REC-SVG-20010904/DTD/svg10.dtd">
<svg version="1.0" xmlns="http://www.w3.org/2000/svg"
 width="1024.000000pt" height="1024.000000pt" viewBox="0 0 1024.000000 1024.000000"
 preserveAspectRatio="xMidYMid meet">

<g transform="translate(0.000000,1024.000000) scale(0.100000,-0.100000)"
 stroke="none">
<path d="M2113 8163 c-92 -3 -113 -6 -113 -19 0 -8 6 -16 13 -18 118 -34 198
-102 238 -201 l24 -60 3 -2025 c2 -1375 -1 -2047 -8 -2093 -19 -127 -92 -227
-201 -277 -56 -26 -71 -38 -63 -52 3 -4 246 -8 540 -8 459 0 534 2 534 14 0 8
-27 27 -60 42 -105 47 -186 156 -210 284 -6 33 -10 396 -10 971 l0 919 248 0
c290 0 351 -8 452 -57 138 -67 299 -259 430 -513 70 -135 207 -422 303 -631
343 -749 522 -1046 794 -1310 288 -281 599 -419 1073 -474 238 -28 514 -14
748 39 594 134 1089 552 1282 1084 152 417 93 960 -141 1309 -210 315 -476
517 -1134 863 -148 78 -314 167 -368 196 -458 253 -703 487 -794 759 -25 73
-27 94 -27 235 0 140 2 162 26 232 103 308 354 517 713 594 121 26 368 23 504
-5 242 -51 445 -162 607 -333 157 -167 254 -367 310 -645 2 -13 9 -23 14 -23
6 0 10 151 10 418 l0 417 -84 53 c-210 131 -466 215 -779 253 -143 17 -473 6
-602 -20 -385 -79 -691 -273 -889 -565 -121 -178 -173 -335 -183 -556 -15
-338 86 -581 344 -831 207 -199 410 -332 958 -624 473 -253 639 -361 814 -530
196 -190 327 -426 378 -682 23 -116 22 -329 -1 -438 -57 -270 -175 -492 -353
-667 -192 -188 -396 -296 -683 -360 -79 -18 -129 -22 -295 -22 -175 -1 -213 2
-304 22 -338 76 -579 235 -818 542 -146 187 -290 442 -496 874 -300 632 -398
821 -520 1000 -75 110 -187 229 -276 295 -72 53 -184 111 -215 111 -44 0 0 13
116 35 355 67 616 194 823 402 139 140 252 340 301 533 32 130 43 343 24 483
-38 281 -173 539 -374 716 -226 197 -485 293 -896 331 -113 10 -1508 21 -1727
13z m1377 -83 c202 -14 286 -27 398 -59 331 -96 561 -323 673 -664 107 -325
88 -734 -46 -1024 -143 -309 -418 -499 -835 -579 -66 -13 -173 -17 -482 -21
l-398 -5 0 1181 0 1181 273 0 c149 0 337 -5 417 -10z"/>
</g>
</svg>
