<?xml version="1.0" encoding="UTF-8"?> <svg xmlns="http://www.w3.org/2000/svg" width="132" height="67" viewBox="0 0 132 67" fill="none"><path d="M56.3013 56.008C55.3173 56.008 54.5973 55.816 54.1413 55.432C53.6853 55.048 53.4573 54.652 53.4573 54.244C53.4573 53.908 53.5773 53.632 53.8173 53.416C54.0573 53.176 54.4053 53.056 54.8613 53.056C55.5573 53.056 56.3133 53.128 57.1293 53.272C57.9693 53.392 58.7613 53.452 59.5053 53.452C59.6253 53.452 59.7453 53.452 59.8653 53.452C60.0093 53.452 60.1293 53.44 60.2253 53.416C60.4653 53.008 60.6333 52.564 60.7293 52.084C60.8493 51.604 60.9093 51.124 60.9093 50.644C60.9093 50.02 60.7773 49.432 60.5133 48.88C60.2493 48.304 59.9493 47.8 59.6133 47.368C59.3013 46.912 59.0253 46.564 58.7853 46.324C58.6653 46.564 58.4613 46.912 58.1733 47.368C57.9093 47.8 57.6453 48.22 57.3813 48.628C57.0453 49.156 56.6613 49.696 56.2293 50.248C55.8213 50.776 55.5213 51.148 55.3293 51.364C55.1133 51.58 54.9693 51.688 54.8973 51.688C54.8013 51.688 54.7533 51.64 54.7533 51.544C54.7533 51.496 54.7893 51.424 54.8613 51.328C54.9333 51.208 55.0173 51.088 55.1133 50.968C55.2333 50.824 55.4853 50.488 55.8693 49.96C56.2773 49.432 56.6493 48.904 56.9853 48.376C57.3693 47.8 57.6813 47.308 57.9213 46.9C58.1853 46.468 58.3653 46.168 58.4613 46C58.2453 45.736 58.0533 45.388 57.8853 44.956C57.7173 44.5 57.6333 44.044 57.6333 43.588C57.6333 42.772 57.8373 42.112 58.2453 41.608C58.6773 41.08 59.0853 40.816 59.4693 40.816C59.9733 40.816 60.2253 41.212 60.2253 42.004C60.2253 42.172 60.2133 42.352 60.1893 42.544C60.1653 42.736 60.1293 42.952 60.0813 43.192C59.9853 43.552 59.8293 43.972 59.6133 44.452C59.4213 44.932 59.2773 45.268 59.1813 45.46C59.4453 45.82 59.8173 46.252 60.2973 46.756C60.7773 47.236 61.2093 47.812 61.5933 48.484C61.9773 49.132 62.1693 49.876 62.1693 50.716C62.1693 51.124 62.1213 51.532 62.0253 51.94C61.9533 52.324 61.8213 52.708 61.6293 53.092C62.5413 52.732 63.3933 52.216 64.1853 51.544C65.0013 50.848 65.7573 49.948 66.4533 48.844C66.5253 48.748 66.5973 48.7 66.6693 48.7C66.7653 48.7 66.8253 48.736 66.8493 48.808C66.8973 48.88 66.8973 48.964 66.8493 49.06C65.9613 50.404 65.0853 51.436 64.2213 52.156C63.3813 52.852 62.3973 53.356 61.2693 53.668C60.1653 55.228 58.5093 56.008 56.3013 56.008ZM58.9293 45.136C58.9773 45.016 59.0733 44.764 59.2173 44.38C59.3613 43.996 59.4813 43.6 59.5773 43.192C59.6493 42.832 59.6853 42.544 59.6853 42.328C59.6853 41.872 59.5653 41.644 59.3253 41.644C59.1333 41.644 58.9173 41.812 58.6773 42.148C58.4613 42.46 58.3533 42.892 58.3533 43.444C58.3533 43.804 58.4133 44.128 58.5333 44.416C58.6533 44.704 58.7853 44.944 58.9293 45.136ZM56.4093 55.648C57.1773 55.624 57.8493 55.456 58.4253 55.144C59.0253 54.832 59.5173 54.412 59.9013 53.884C59.1813 53.908 58.4613 53.872 57.7413 53.776C57.0213 53.68 56.3133 53.632 55.6173 53.632C55.3053 53.632 55.0413 53.704 54.8253 53.848C54.5853 53.992 54.4653 54.16 54.4653 54.352C54.4653 54.712 54.6573 55.012 55.0413 55.252C55.4253 55.516 55.8813 55.648 56.4093 55.648ZM56.4284 66.736C55.5884 66.736 54.9284 66.544 54.4484 66.16C53.9684 65.776 53.6324 65.284 53.4404 64.684C53.2484 64.108 53.1524 63.544 53.1524 62.992C53.1524 62.512 53.2004 62.092 53.2964 61.732C53.3924 61.372 53.5004 61.108 53.6204 60.94C53.7164 60.844 53.8004 60.796 53.8724 60.796C53.9684 60.796 54.0284 60.832 54.0524 60.904C54.0764 61 54.0524 61.096 53.9804 61.192C53.7884 61.432 53.6924 61.924 53.6924 62.668C53.6924 63.172 53.7764 63.7 53.9444 64.252C54.1124 64.828 54.4124 65.308 54.8444 65.692C55.2764 66.1 55.8764 66.304 56.6444 66.304C57.3404 66.304 58.0364 65.968 58.7324 65.296C59.4044 64.648 60.0644 63.76 60.7124 62.632C61.3364 61.528 61.9124 60.292 62.4404 58.924C62.9924 57.532 63.4964 56.164 63.9524 54.82C64.4084 53.452 64.9124 52.072 65.4644 50.68C66.0404 49.264 66.7604 47.8 67.6244 46.288C68.0804 45.496 68.5724 44.716 69.1004 43.948C69.6524 43.156 70.2284 42.508 70.8284 42.004C71.4284 41.5 72.0644 41.248 72.7364 41.248C72.8564 41.248 73.0244 41.26 73.2404 41.284C73.4564 41.308 73.5764 41.392 73.6004 41.536V41.572C73.6004 41.668 73.4924 41.716 73.2764 41.716C73.1804 41.716 73.0724 41.716 72.9524 41.716C72.8564 41.692 72.7604 41.68 72.6644 41.68C72.2324 41.68 71.7884 41.92 71.3324 42.4C70.8764 42.856 70.4324 43.42 70.0004 44.092C69.5924 44.764 69.2084 45.412 68.8484 46.036C69.4004 45.58 70.0124 45.208 70.6844 44.92C71.3564 44.632 71.9924 44.488 72.5924 44.488C73.2404 44.488 73.7684 44.704 74.1764 45.136C74.6084 45.544 74.7644 46.252 74.6444 47.26C74.5484 48.052 74.3324 48.88 73.9964 49.744C73.6604 50.584 73.2164 51.388 72.6644 52.156C72.1364 52.924 71.5124 53.572 70.7924 54.1C70.0964 54.604 69.3284 54.904 68.4884 55C68.6564 55.024 68.8124 55.036 68.9564 55.036C69.1244 55.06 69.2924 55.072 69.4604 55.072C70.6604 55.072 71.7764 54.76 72.8084 54.136C73.8404 53.488 74.7764 52.696 75.6164 51.76C76.4564 50.8 77.2004 49.864 77.8484 48.952C77.9204 48.832 78.0044 48.772 78.1004 48.772C78.1724 48.772 78.2204 48.808 78.2444 48.88C78.2924 48.952 78.2924 49.036 78.2444 49.132C76.8764 51.124 75.5804 52.624 74.3564 53.632C73.1564 54.616 71.9204 55.228 70.6484 55.468C70.1924 55.54 69.7244 55.576 69.2444 55.576C68.8364 55.576 68.4524 55.552 68.0924 55.504C67.7564 55.456 67.4804 55.408 67.2644 55.36C66.6644 55.168 66.2324 54.892 65.9684 54.532C65.7044 54.172 65.5364 53.86 65.4644 53.596C65.4404 53.764 65.3324 54.22 65.1404 54.964C64.9484 55.684 64.6844 56.56 64.3484 57.592C64.0124 58.624 63.6164 59.704 63.1604 60.832C62.8004 61.744 62.3084 62.656 61.6844 63.568C61.0604 64.48 60.3164 65.236 59.4524 65.836C58.5884 66.436 57.5804 66.736 56.4284 66.736ZM67.6604 54.784C68.2844 54.784 68.8964 54.52 69.4964 53.992C70.1204 53.44 70.6964 52.756 71.2244 51.94C71.7764 51.124 72.2324 50.308 72.5924 49.492C72.9764 48.676 73.2164 47.98 73.3124 47.404C73.3844 47.044 73.4204 46.72 73.4204 46.432C73.4204 45.424 73.0604 44.92 72.3404 44.92C71.8124 44.92 71.1644 45.196 70.3964 45.748C69.6284 46.3 68.8844 47.044 68.1644 47.98C67.4444 48.892 66.8684 49.912 66.4364 51.04C66.2924 51.4 66.1844 51.736 66.1124 52.048C66.0644 52.36 66.0404 52.648 66.0404 52.912C66.0404 53.512 66.1964 53.98 66.5084 54.316C66.8204 54.628 67.2044 54.784 67.6604 54.784ZM80.2005 55.288C79.0965 55.288 78.3045 54.916 77.8245 54.172C77.3685 53.428 77.1405 52.588 77.1405 51.652C77.1405 51.292 77.1765 50.932 77.2485 50.572C77.3205 50.188 77.4045 49.84 77.5005 49.528C77.7645 48.76 78.1125 48.052 78.5445 47.404C79.0005 46.732 79.4925 46.168 80.0205 45.712C80.4765 45.28 80.9565 44.944 81.4605 44.704C81.9885 44.464 82.4685 44.344 82.9005 44.344C83.3085 44.344 83.6325 44.464 83.8725 44.704C84.1365 44.92 84.2685 45.292 84.2685 45.82C84.2685 46.228 84.1845 46.684 84.0165 47.188C83.7525 48.052 83.2005 48.808 82.3605 49.456C81.5445 50.08 80.6805 50.392 79.7685 50.392C79.6005 50.392 79.4325 50.38 79.2645 50.356C79.0965 50.308 78.9165 50.26 78.7245 50.212C78.6285 50.572 78.5445 50.944 78.4725 51.328C78.4245 51.688 78.4005 52.036 78.4005 52.372C78.4005 53.044 78.5445 53.62 78.8325 54.1C79.1205 54.58 79.6245 54.82 80.3445 54.82C80.8965 54.82 81.5205 54.616 82.2165 54.208C82.9125 53.8 83.6085 53.284 84.3045 52.66C85.0245 52.036 85.6725 51.4 86.2485 50.752C86.8245 50.08 87.2805 49.48 87.6165 48.952C87.6885 48.832 87.7605 48.772 87.8325 48.772C87.9525 48.772 88.0125 48.844 88.0125 48.988C88.0125 49.06 87.9765 49.156 87.9045 49.276C87.3045 50.14 86.6205 50.992 85.8525 51.832C85.0845 52.672 84.2805 53.392 83.4405 53.992C82.8645 54.4 82.3005 54.724 81.7485 54.964C81.2205 55.18 80.7045 55.288 80.2005 55.288ZM79.5885 50.14C80.0445 50.14 80.5245 49.972 81.0285 49.636C81.5325 49.276 81.9885 48.868 82.3965 48.412C82.8045 47.932 83.0925 47.512 83.2605 47.152C83.6205 46.384 83.8005 45.796 83.8005 45.388C83.8005 44.884 83.5845 44.632 83.1525 44.632C82.8645 44.632 82.5045 44.788 82.0725 45.1C81.6405 45.388 81.2085 45.82 80.7765 46.396C80.3685 46.948 79.9965 47.548 79.6605 48.196C79.3245 48.844 79.0605 49.408 78.8685 49.888C79.0605 50.056 79.3005 50.14 79.5885 50.14ZM90.0819 55.288C89.1699 55.288 88.4139 54.976 87.8139 54.352C87.2139 53.704 86.9139 52.828 86.9139 51.724C86.9139 50.836 87.1299 49.852 87.5619 48.772C87.8259 48.124 88.1979 47.476 88.6779 46.828C89.1579 46.156 89.7459 45.616 90.4419 45.208C91.1379 44.776 91.9419 44.608 92.8539 44.704C93.6459 44.8 94.1859 45.016 94.4739 45.352C94.7619 45.664 94.9059 45.988 94.9059 46.324C94.9059 46.612 94.8339 46.864 94.6899 47.08C94.5459 47.272 94.4139 47.368 94.2939 47.368C94.1019 47.368 94.0059 47.176 94.0059 46.792C94.0059 46.576 94.0059 46.336 94.0059 46.072C94.0059 45.808 93.9339 45.592 93.7899 45.424C93.6459 45.232 93.3459 45.136 92.8899 45.136C92.3619 45.136 91.8339 45.352 91.3059 45.784C90.8019 46.192 90.3459 46.708 89.9379 47.332C89.5539 47.932 89.2419 48.52 89.0019 49.096C88.7619 49.744 88.5819 50.344 88.4619 50.896C88.3419 51.424 88.2819 51.904 88.2819 52.336C88.2819 53.128 88.4499 53.74 88.7859 54.172C89.1219 54.58 89.5899 54.784 90.1899 54.784C90.6699 54.784 91.2099 54.652 91.8099 54.388C92.4099 54.1 93.0579 53.656 93.7539 53.056C94.5699 52.384 95.2779 51.688 95.8779 50.968C96.5019 50.224 97.1139 49.372 97.7139 48.412C97.7619 48.364 97.8219 48.34 97.8939 48.34C97.9659 48.34 98.0379 48.376 98.1099 48.448C98.2059 48.496 98.2419 48.544 98.2179 48.592C97.5699 49.552 96.8979 50.452 96.2019 51.292C95.5059 52.132 94.7499 52.9 93.9339 53.596C93.2619 54.196 92.5899 54.628 91.9179 54.892C91.2699 55.156 90.6579 55.288 90.0819 55.288ZM101.691 43.336C101.211 43.168 100.971 42.844 100.971 42.364C100.971 42.1 101.067 41.872 101.259 41.68C101.475 41.488 101.703 41.392 101.943 41.392C102.231 41.392 102.459 41.488 102.627 41.68C102.819 41.872 102.915 42.1 102.915 42.364C102.915 42.652 102.783 42.904 102.519 43.12C102.255 43.312 101.979 43.384 101.691 43.336ZM99.8185 55.612C99.1465 55.612 98.6305 55.372 98.2705 54.892C97.9345 54.412 97.7665 53.776 97.7665 52.984C97.7665 52.6 97.8025 52.192 97.8745 51.76C97.9705 51.328 98.0905 50.884 98.2345 50.428C98.4505 49.756 98.7025 49.036 98.9905 48.268C99.2785 47.5 99.5065 46.96 99.6745 46.648C99.6265 46.672 99.4945 46.828 99.2785 47.116C99.0865 47.404 98.8345 47.764 98.5225 48.196C98.2345 48.604 97.9345 49.024 97.6225 49.456C97.3105 49.888 97.0345 50.248 96.7945 50.536C96.7225 50.608 96.6385 50.644 96.5425 50.644C96.4465 50.644 96.3985 50.608 96.3985 50.536C96.3985 50.464 96.4465 50.344 96.5425 50.176C97.2145 49.168 97.8265 48.268 98.3785 47.476C98.9305 46.66 99.4345 45.88 99.8905 45.136C100.131 44.728 100.419 44.536 100.755 44.56C101.091 44.56 101.451 44.56 101.835 44.56C101.739 44.752 101.547 45.184 101.259 45.856C100.995 46.528 100.695 47.272 100.359 48.088C100.047 48.88 99.7705 49.576 99.5305 50.176C99.2905 50.776 99.0865 51.376 98.9185 51.976C98.7745 52.576 98.7025 53.116 98.7025 53.596C98.7025 54.604 99.0745 55.108 99.8185 55.108C100.467 55.108 101.175 54.832 101.943 54.28C102.711 53.704 103.479 52.972 104.247 52.084C105.039 51.196 105.783 50.272 106.479 49.312C106.599 49.12 106.719 49.024 106.839 49.024C106.911 49.024 106.947 49.084 106.947 49.204C106.947 49.3 106.923 49.396 106.875 49.492V49.456C106.083 50.584 105.279 51.616 104.463 52.552C103.671 53.488 102.891 54.232 102.123 54.784C101.355 55.336 100.587 55.612 99.8185 55.612ZM114.608 55.216C113.984 55.216 113.528 54.964 113.24 54.46C112.976 53.956 112.844 53.356 112.844 52.66C112.844 51.988 112.952 51.328 113.168 50.68C112.856 51.304 112.472 51.976 112.016 52.696C111.584 53.392 111.068 53.98 110.468 54.46C109.868 54.94 109.148 55.18 108.308 55.18C107.636 55.18 107.072 54.928 106.616 54.424C106.16 53.92 105.932 53.116 105.932 52.012C105.932 51.556 105.992 51.052 106.112 50.5C106.232 49.948 106.412 49.372 106.652 48.772C106.892 48.148 107.252 47.512 107.732 46.864C108.236 46.192 108.836 45.64 109.532 45.208C110.228 44.752 111.008 44.524 111.872 44.524C112.784 44.524 113.42 44.692 113.78 45.028C114.14 45.364 114.356 45.628 114.428 45.82C114.452 45.868 114.464 45.928 114.464 46C114.464 46.168 114.38 46.252 114.212 46.252C114.116 46.252 114.032 46.204 113.96 46.108C113.624 45.7 113.288 45.412 112.952 45.244C112.64 45.076 112.328 44.992 112.016 44.992C111.44 44.992 110.9 45.22 110.396 45.676C109.892 46.132 109.448 46.684 109.064 47.332C108.68 47.956 108.356 48.544 108.092 49.096C107.948 49.408 107.78 49.912 107.588 50.608C107.396 51.304 107.3 51.988 107.3 52.66C107.3 53.212 107.396 53.692 107.588 54.1C107.78 54.484 108.14 54.676 108.668 54.676C109.292 54.676 109.856 54.448 110.36 53.992C110.888 53.512 111.356 52.96 111.764 52.336C112.172 51.712 112.484 51.16 112.7 50.68C113.828 48.304 114.728 46.432 115.4 45.064C115.448 44.944 115.58 44.848 115.796 44.776C116.036 44.68 116.252 44.632 116.444 44.632C116.756 44.632 116.912 44.728 116.912 44.92C116.912 44.992 116.852 45.124 116.732 45.316C116.636 45.436 116.456 45.76 116.192 46.288C115.928 46.792 115.664 47.308 115.4 47.836C115.256 48.124 115.064 48.58 114.824 49.204C114.608 49.828 114.404 50.512 114.212 51.256C114.02 51.976 113.924 52.624 113.924 53.2C113.924 53.608 113.996 53.956 114.14 54.244C114.284 54.508 114.524 54.64 114.86 54.64C115.124 54.64 115.412 54.568 115.724 54.424C116.42 54.112 117.128 53.644 117.848 53.02C118.568 52.372 119.252 51.664 119.9 50.896C120.548 50.104 121.088 49.36 121.52 48.664C121.664 48.424 121.796 48.304 121.916 48.304C121.988 48.304 122.024 48.364 122.024 48.484C122.024 48.58 121.952 48.76 121.808 49.024C121.4 49.696 120.86 50.428 120.188 51.22C119.54 52.012 118.832 52.744 118.064 53.416C117.32 54.088 116.6 54.58 115.904 54.892C115.4 55.108 114.968 55.216 114.608 55.216ZM122.357 55.648C121.757 55.648 121.253 55.444 120.845 55.036C120.461 54.652 120.269 54.028 120.269 53.164C120.269 52.516 120.413 51.664 120.701 50.608C120.989 49.528 121.469 48.148 122.141 46.468C122.837 44.692 123.641 42.928 124.553 41.176C125.489 39.4 126.509 37.78 127.613 36.316C128.021 35.764 128.453 35.356 128.909 35.092C129.365 34.828 129.785 34.696 130.169 34.696C130.505 34.696 130.781 34.804 130.997 35.02C131.237 35.236 131.357 35.584 131.357 36.064C131.357 36.328 131.309 36.652 131.213 37.036C131.117 37.396 130.949 37.816 130.709 38.296C130.157 39.424 129.293 40.684 128.117 42.076C126.965 43.444 125.285 45.112 123.077 47.08C122.021 49.744 121.493 51.808 121.493 53.272C121.493 53.92 121.601 54.388 121.817 54.676C122.057 54.94 122.345 55.072 122.681 55.072C123.017 55.072 123.377 54.964 123.761 54.748C124.169 54.532 124.553 54.292 124.913 54.028C125.681 53.428 126.449 52.684 127.217 51.796C128.009 50.884 128.717 49.96 129.341 49.024C129.365 48.976 129.425 48.952 129.521 48.952C129.593 48.952 129.653 48.988 129.701 49.06C129.773 49.132 129.785 49.204 129.737 49.276C129.089 50.236 128.333 51.208 127.469 52.192C126.605 53.176 125.765 53.992 124.949 54.64C124.061 55.312 123.197 55.648 122.357 55.648ZM123.509 46.072C125.141 44.56 126.509 43.168 127.613 41.896C128.717 40.6 129.581 39.352 130.205 38.152C130.661 37.264 130.889 36.58 130.889 36.1C130.889 35.692 130.745 35.488 130.457 35.488C130.265 35.488 130.001 35.632 129.665 35.92C129.329 36.184 128.945 36.616 128.513 37.216C127.817 38.224 127.193 39.184 126.641 40.096C126.089 41.008 125.561 41.944 125.057 42.904C124.577 43.84 124.061 44.896 123.509 46.072Z" fill="#252222"></path><path d="M11.1749 30H8.18691V5.16H1.95891V4.8H17.4389V5.16H11.1749V30ZM22.9362 30C21.9522 30 21.1962 29.784 20.6682 29.352C20.1642 28.92 19.9002 28.488 19.8762 28.056L19.8402 27.444V12H22.3602V27.444C22.3602 28.14 22.4922 28.68 22.7562 29.064C23.0442 29.424 23.3202 29.616 23.5842 29.64L24.0162 29.712H25.1322V30H22.9362ZM20.0562 7.968C19.7682 7.68 19.6242 7.32 19.6242 6.888C19.6242 6.456 19.7682 6.096 20.0562 5.808C20.3442 5.496 20.7042 5.34 21.1362 5.34C21.5682 5.34 21.9282 5.496 22.2162 5.808C22.5282 6.096 22.6842 6.456 22.6842 6.888C22.6842 7.32 22.5282 7.68 22.2162 7.968C21.9282 8.256 21.5682 8.4 21.1362 8.4C20.7042 8.4 20.3442 8.256 20.0562 7.968ZM49.023 16.14C49.023 14.676 48.831 13.644 48.447 13.044C48.063 12.444 47.331 12.144 46.251 12.144C44.811 12.144 43.527 12.744 42.399 13.944C41.295 15.144 40.743 16.224 40.743 17.184V30H38.223V16.14C38.223 14.676 38.031 13.644 37.647 13.044C37.263 12.444 36.447 12.144 35.199 12.144C33.951 12.144 32.763 12.72 31.635 13.872C30.531 15.024 29.931 16.092 29.835 17.076V30H27.315V12H29.835V16.068C30.219 15.036 30.927 14.076 31.959 13.188C32.991 12.3 34.143 11.856 35.415 11.856C36.687 11.856 37.695 11.976 38.439 12.216C39.207 12.432 39.747 12.78 40.059 13.26C40.371 13.74 40.563 14.16 40.635 14.52C40.707 14.88 40.743 15.384 40.743 16.032C41.127 15 41.823 14.052 42.831 13.188C43.839 12.3 44.919 11.856 46.071 11.856C47.223 11.856 48.147 11.952 48.843 12.144C49.539 12.336 50.055 12.552 50.391 12.792C50.751 13.032 51.015 13.38 51.183 13.836C51.375 14.292 51.483 14.664 51.507 14.952C51.531 15.24 51.543 15.648 51.543 16.176V27.444C51.543 28.14 51.675 28.68 51.939 29.064C52.227 29.424 52.515 29.616 52.803 29.64L53.199 29.712H54.315V30H52.119C51.135 30 50.379 29.784 49.851 29.352C49.347 28.92 49.083 28.488 49.059 28.056L49.023 27.444V16.14ZM59.0768 30C58.0928 30 57.3368 29.784 56.8088 29.352C56.3048 28.92 56.0408 28.488 56.0168 28.056L55.9808 27.444V12H58.5008V27.444C58.5008 28.14 58.6328 28.68 58.8968 29.064C59.1848 29.424 59.4608 29.616 59.7248 29.64L60.1568 29.712H61.2728V30H59.0768ZM56.1968 7.968C55.9088 7.68 55.7648 7.32 55.7648 6.888C55.7648 6.456 55.9088 6.096 56.1968 5.808C56.4848 5.496 56.8448 5.34 57.2768 5.34C57.7088 5.34 58.0688 5.496 58.3568 5.808C58.6688 6.096 58.8248 6.456 58.8248 6.888C58.8248 7.32 58.6688 7.68 58.3568 7.968C58.0688 8.256 57.7088 8.4 57.2768 8.4C56.8448 8.4 56.4848 8.256 56.1968 7.968ZM78.3956 30C77.4116 30 76.6556 29.784 76.1276 29.352C75.6236 28.92 75.3596 28.488 75.3356 28.056L75.2996 27.444V16.14C75.2996 14.244 74.8076 13.032 73.8236 12.504C73.3196 12.264 72.6956 12.144 71.9516 12.144C70.4156 12.144 69.0356 12.756 67.8116 13.98C66.5876 15.18 65.9756 16.26 65.9756 17.22V30H63.4556V12H65.9756V16.104C66.3836 15.072 67.1396 14.112 68.2436 13.224C69.3476 12.312 70.5596 11.856 71.8796 11.856C73.1996 11.856 74.2676 11.988 75.0836 12.252C75.9236 12.492 76.5356 12.84 76.9196 13.296C77.5196 14.04 77.8196 15 77.8196 16.176V27.444C77.8196 28.14 77.9516 28.68 78.2156 29.064C78.5036 29.424 78.7916 29.616 79.0796 29.64L79.4756 29.712H80.5916V30H78.3956ZM81.8733 21.648C81.8733 18.528 82.6293 16.116 84.1413 14.412C85.6533 12.708 87.9213 11.856 90.9453 11.856C93.1773 11.856 95.4453 12.252 97.7493 13.044V30.432C97.7253 36.144 95.2293 39 90.2613 39C87.5253 39 85.1853 38.112 83.2413 36.336L83.4933 36.12C85.5573 37.848 87.8133 38.712 90.2613 38.712C93.5733 38.712 95.2293 35.952 95.2293 30.432V26.868C94.7733 27.708 94.0173 28.452 92.9613 29.1C91.9053 29.748 90.6573 30.072 89.2173 30.072C84.3213 29.952 81.8733 27.144 81.8733 21.648ZM89.2533 29.784C90.8613 29.784 92.2413 29.352 93.3933 28.488C94.5453 27.624 95.1573 26.772 95.2293 25.932V13.224C93.5013 12.504 92.0373 12.144 90.8373 12.144C88.7013 12.144 87.0933 12.984 86.0133 14.664C84.9333 16.32 84.3933 18.648 84.3933 21.648C84.3933 27.072 86.0133 29.784 89.2533 29.784Z" fill="#252222"></path></svg> 