<?xml version="1.0" encoding="UTF-8"?> <svg xmlns="http://www.w3.org/2000/svg" width="199" height="36" viewBox="0 0 199 36" fill="none"><path d="M27.8795 1.8C28.3355 2.256 28.5635 2.844 28.5635 3.564C28.5635 4.164 28.4315 4.776 28.1675 5.4L19.6715 27L19.2755 27.18L14.5235 12.096L8.6555 27L8.2595 27.18L0.2675 1.8H3.3275L9.7715 23.112L14.3435 11.52L11.2835 1.8H14.3435L20.7875 23.112L27.7355 5.4C27.9995 4.8 28.1315 4.176 28.1315 3.528C28.1315 2.88 27.9515 2.376 27.5915 2.016L27.8795 1.8ZM32.0794 18.216C32.0794 21.192 32.5954 23.376 33.6274 24.768C34.6834 26.16 36.0634 26.856 37.7674 26.856C40.1674 26.856 42.3034 26.496 44.1754 25.776L44.2834 26.028C42.3634 26.772 40.1914 27.144 37.7674 27.144C35.3674 27.144 33.4114 26.424 31.8994 24.984C30.3874 23.544 29.6314 21.324 29.6314 18.324C29.6314 15.324 30.4234 12.996 32.0074 11.34C33.5914 9.684 35.6074 8.856 38.0554 8.856C40.0234 8.856 41.6794 9.444 43.0234 10.62C44.3674 11.796 45.0394 13.536 45.0394 15.84C45.0394 15.96 45.0394 16.08 45.0394 16.2H32.1874C32.1154 16.848 32.0794 17.52 32.0794 18.216ZM42.5914 15.912C42.5674 13.608 42.1234 11.904 41.2594 10.8C40.3954 9.696 39.2794 9.144 37.9114 9.144C36.5434 9.144 35.3194 9.744 34.2394 10.944C33.1834 12.144 32.5114 13.8 32.2234 15.912H42.5914ZM47.5963 18.648C47.5963 15.528 48.3523 13.116 49.8643 11.412C51.3763 9.708 53.6443 8.856 56.6683 8.856C58.0843 8.856 59.5123 9.216 60.9523 9.936V0.0359995H63.4723V24.444C63.4723 25.14 63.6043 25.68 63.8683 26.064C64.1563 26.424 64.4443 26.616 64.7323 26.64L65.1283 26.712H66.2443V27H64.0483C63.0643 27 62.3083 26.784 61.7803 26.352C61.2763 25.92 61.0123 25.488 60.9883 25.056L60.9523 24.444V23.868C60.4963 24.708 59.7403 25.452 58.6843 26.1C57.6283 26.748 56.3803 27.072 54.9403 27.072C50.0443 26.952 47.5963 24.144 47.5963 18.648ZM54.9763 26.784C56.5843 26.784 57.9643 26.352 59.1163 25.488C60.2683 24.624 60.8803 23.772 60.9523 22.932V10.26C59.2483 9.516 57.7843 9.144 56.5603 9.144C54.4243 9.144 52.8163 9.984 51.7363 11.664C50.6563 13.32 50.1163 15.648 50.1163 18.648C50.1163 24.072 51.7363 26.784 54.9763 26.784ZM68.4088 18.648C68.4088 15.528 69.1648 13.116 70.6768 11.412C72.1888 9.708 74.4568 8.856 77.4808 8.856C78.8968 8.856 80.3248 9.216 81.7648 9.936V0.0359995H84.2848V24.444C84.2848 25.14 84.4168 25.68 84.6808 26.064C84.9688 26.424 85.2568 26.616 85.5448 26.64L85.9408 26.712H87.0568V27H84.8608C83.8768 27 83.1208 26.784 82.5928 26.352C82.0888 25.92 81.8248 25.488 81.8008 25.056L81.7648 24.444V23.868C81.3088 24.708 80.5528 25.452 79.4968 26.1C78.4408 26.748 77.1928 27.072 75.7528 27.072C70.8568 26.952 68.4088 24.144 68.4088 18.648ZM75.7888 26.784C77.3968 26.784 78.7768 26.352 79.9288 25.488C81.0808 24.624 81.6928 23.772 81.7648 22.932V10.26C80.0608 9.516 78.5968 9.144 77.3728 9.144C75.2368 9.144 73.6288 9.984 72.5488 11.664C71.4688 13.32 70.9288 15.648 70.9288 18.648C70.9288 24.072 72.5488 26.784 75.7888 26.784ZM92.8933 27C91.9093 27 91.1533 26.784 90.6253 26.352C90.1213 25.92 89.8573 25.488 89.8333 25.056L89.7973 24.444V9H92.3173V24.444C92.3173 25.14 92.4493 25.68 92.7133 26.064C93.0013 26.424 93.2773 26.616 93.5413 26.64L93.9733 26.712H95.0893V27H92.8933ZM90.0133 4.968C89.7253 4.68 89.5813 4.32 89.5813 3.888C89.5813 3.456 89.7253 3.096 90.0133 2.808C90.3013 2.496 90.6613 2.34 91.0933 2.34C91.5253 2.34 91.8853 2.496 92.1733 2.808C92.4853 3.096 92.6413 3.456 92.6413 3.888C92.6413 4.32 92.4853 4.68 92.1733 4.968C91.8853 5.256 91.5253 5.4 91.0933 5.4C90.6613 5.4 90.3013 5.256 90.0133 4.968ZM112.212 27C111.228 27 110.472 26.784 109.944 26.352C109.44 25.92 109.176 25.488 109.152 25.056L109.116 24.444V13.14C109.116 11.244 108.624 10.032 107.64 9.504C107.136 9.264 106.512 9.144 105.768 9.144C104.232 9.144 102.852 9.756 101.628 10.98C100.404 12.18 99.792 13.26 99.792 14.22V27H97.272V9H99.792V13.104C100.2 12.072 100.956 11.112 102.06 10.224C103.164 9.312 104.376 8.856 105.696 8.856C107.016 8.856 108.084 8.988 108.9 9.252C109.74 9.492 110.352 9.84 110.736 10.296C111.336 11.04 111.636 12 111.636 13.176V24.444C111.636 25.14 111.768 25.68 112.032 26.064C112.32 26.424 112.608 26.616 112.896 26.64L113.292 26.712H114.408V27H112.212ZM115.69 18.648C115.69 15.528 116.446 13.116 117.958 11.412C119.47 9.708 121.738 8.856 124.762 8.856C126.994 8.856 129.262 9.252 131.566 10.044V27.432C131.542 33.144 129.046 36 124.078 36C121.342 36 119.002 35.112 117.058 33.336L117.31 33.12C119.374 34.848 121.63 35.712 124.078 35.712C127.39 35.712 129.046 32.952 129.046 27.432V23.868C128.59 24.708 127.834 25.452 126.778 26.1C125.722 26.748 124.474 27.072 123.034 27.072C118.138 26.952 115.69 24.144 115.69 18.648ZM123.07 26.784C124.678 26.784 126.058 26.352 127.21 25.488C128.362 24.624 128.974 23.772 129.046 22.932V10.224C127.318 9.504 125.854 9.144 124.654 9.144C122.518 9.144 120.91 9.984 119.83 11.664C118.75 13.32 118.21 15.648 118.21 18.648C118.21 24.072 119.83 26.784 123.07 26.784ZM148.974 1.836C150.03 1.788 151.062 1.764 152.07 1.764C153.102 1.764 154.182 1.872 155.31 2.088C156.462 2.304 157.59 2.712 158.694 3.312C159.822 3.888 160.77 4.644 161.538 5.58C162.33 6.492 162.966 7.704 163.446 9.216C163.926 10.728 164.166 12.564 164.166 14.724C164.166 16.884 163.806 18.828 163.086 20.556C162.39 22.26 161.43 23.568 160.206 24.48C157.83 26.256 154.962 27.144 151.602 27.144C150.426 27.144 149.19 27.096 147.894 27H146.094V1.836H148.974ZM149.082 26.712C149.586 26.76 150.222 26.784 150.99 26.784C151.758 26.784 152.334 26.772 152.718 26.748C153.102 26.724 153.63 26.628 154.302 26.46C154.974 26.268 155.598 26.016 156.174 25.704C156.75 25.392 157.35 24.936 157.974 24.336C158.622 23.712 159.174 22.98 159.63 22.14C160.662 20.172 161.178 17.604 161.178 14.436C161.178 12.18 160.902 10.236 160.35 8.604C159.798 6.948 159.162 5.724 158.442 4.932C157.746 4.14 156.894 3.516 155.886 3.06C154.878 2.58 154.074 2.304 153.474 2.232C152.874 2.16 152.178 2.124 151.386 2.124C150.594 2.124 149.826 2.16 149.082 2.232V26.712ZM181.925 27C180.293 27 179.177 26.688 178.577 26.064C178.025 25.536 177.749 25.08 177.749 24.696V23.94C176.573 26.076 174.689 27.144 172.097 27.144C169.073 27.144 167.357 25.776 166.949 23.04C166.901 22.752 166.877 22.464 166.877 22.176C166.877 21.864 166.925 21.528 167.021 21.168C167.117 20.808 167.393 20.412 167.849 19.98C168.761 19.116 170.765 18.588 173.861 18.396C174.629 18.324 175.337 18.288 175.985 18.288C176.633 18.288 177.221 18.312 177.749 18.36V12.384C177.701 12.36 177.701 12.252 177.749 12.06C177.797 11.844 177.749 11.58 177.605 11.268C177.485 10.932 177.317 10.608 177.101 10.296C176.885 9.984 176.501 9.72 175.949 9.504C175.397 9.264 174.677 9.144 173.789 9.144C172.901 9.144 171.857 9.312 170.657 9.648C169.481 9.96 168.617 10.272 168.065 10.584L167.921 10.332C170.057 9.348 172.229 8.856 174.437 8.856C176.909 8.856 178.541 9.3 179.333 10.188C179.957 10.884 180.269 11.616 180.269 12.384V24.444C180.269 25.14 180.401 25.68 180.665 26.064C180.953 26.424 181.241 26.616 181.529 26.64L181.925 26.712H183.041V27H181.925ZM172.673 26.856C173.945 26.856 175.085 26.424 176.093 25.56C177.125 24.672 177.677 23.82 177.749 23.004V18.648C177.101 18.6 176.441 18.576 175.769 18.576C175.121 18.576 174.473 18.612 173.825 18.684C172.001 18.9 170.813 19.308 170.261 19.908C169.709 20.508 169.433 21.336 169.433 22.392C169.433 22.584 169.445 22.8 169.469 23.04C169.685 25.584 170.753 26.856 172.673 26.856ZM188.36 33.444C187.592 35.148 186.644 36 185.516 36C185.012 36 184.424 35.916 183.752 35.748V35.46C184.304 35.604 184.796 35.676 185.228 35.676C186.452 35.676 187.388 34.932 188.036 33.444L191.06 27H191.024L184.328 9H186.848L192.428 24.012L197.936 12.6C198.224 12.096 198.368 11.496 198.368 10.8C198.368 10.104 198.176 9.576 197.792 9.216L198.008 9C198.104 9.048 198.224 9.192 198.368 9.432C198.536 9.672 198.632 9.888 198.656 10.08C198.704 10.272 198.728 10.452 198.728 10.62C198.728 11.268 198.584 11.928 198.296 12.6L191.384 27L188.36 33.444Z" fill="#252222"></path></svg> 