<?xml version="1.0" encoding="UTF-8"?> <svg xmlns="http://www.w3.org/2000/svg" width="227" height="35" viewBox="0 0 227 35" fill="none"><path d="M37.5529 0.399998C38.1609 1.008 38.4649 1.792 38.4649 2.752C38.4649 3.552 38.2889 4.368 37.9369 5.2L26.6089 34L26.0809 34.24L19.7449 14.128L11.9209 34L11.3929 34.24L0.736875 0.399998H4.81688L13.4089 28.816L19.5049 13.36L15.4249 0.399998H19.5049L28.0969 28.816L37.3609 5.2C37.7129 4.4 37.8889 3.568 37.8889 2.704C37.8889 1.84 37.6489 1.168 37.1689 0.688L37.5529 0.399998ZM43.2506 0.879997V0.399998H51.7946V0.879997H49.4426V33.52H51.7946V34H43.2506V33.52H45.4586V0.879997H43.2506ZM68.8999 34H64.9159V0.879997H56.6119V0.399998H77.2519V0.879997H68.8999V34ZM85.0871 34H81.1031V0.399998H85.0871V15.856H100.687V0.399998H104.671V34H100.687V16.336H85.0871V34ZM143.006 34H124.766V0.399998H128.75V33.52H143.006V34ZM144.478 18.016C144.478 12.192 145.886 7.776 148.702 4.768C151.55 1.728 155.198 0.207997 159.646 0.207997C164.094 0.207997 167.63 1.52 170.254 4.144C172.91 6.768 174.238 10.96 174.238 16.72C174.238 22.48 172.83 26.832 170.014 29.776C167.198 32.72 163.438 34.192 158.734 34.192C154.67 34.192 151.342 33.024 148.75 30.688C147.406 29.472 146.35 27.792 145.582 25.648C144.846 23.472 144.478 20.928 144.478 18.016ZM159.502 0.688C156.27 0.688 153.614 2.128 151.534 5.008C149.486 7.888 148.462 12.112 148.462 17.68C148.462 23.248 149.438 27.312 151.39 29.872C153.342 32.432 155.934 33.712 159.166 33.712C162.43 33.712 165.086 32.272 167.134 29.392C169.214 26.48 170.254 22.272 170.254 16.768C170.254 11.232 169.262 7.168 167.278 4.576C165.326 1.984 162.734 0.688 159.502 0.688ZM201.14 0.399998C201.748 1.008 202.052 1.792 202.052 2.752C202.052 3.552 201.876 4.368 201.524 5.2L189.236 34L188.708 34.24L176.612 0.399998H180.692L190.724 28.816L200.948 5.2C201.3 4.4 201.476 3.568 201.476 2.704C201.476 1.84 201.236 1.168 200.756 0.688L201.14 0.399998ZM225.948 0.399998V0.879997H210.828V15.28H224.844V15.76H210.828V33.52H227.004V34H206.844V0.399998H225.948Z" fill="white"></path></svg> 